<?xml version="1.0" encoding="utf-8"?>
<!-- Generator: Adobe Illustrator 27.0.0, SVG Export Plug-In . SVG Version: 6.00 Build 0)  -->
<svg version="1.1" id="Contours" xmlns="http://www.w3.org/2000/svg" xmlns:xlink="http://www.w3.org/1999/xlink" x="0px" y="0px"
	 viewBox="0 0 1080 1080" style="enable-background:new 0 0 1080 1080;" xml:space="preserve">
<style type="text/css">
	.st0{fill:#FFFFFF;}
</style>
<path class="st0" d="M1080,563.8c-0.3,1.6-0.8,3-1,4.5c-1.4,14.6-2.2,29.3-4.1,43.8c-2.1,16-4.8,31.9-8,47.7
	c-2.7,12.7-6.2,25.3-10.1,37.8c-7.6,24.7-17,48.8-28.1,72.3c-13.6,28.8-29.5,56.2-48.1,82c-12.8,17.9-26,35.5-41.4,51.3
	c-11,11.5-21.6,23.4-33.3,34.2c-18,16.6-36.8,32.3-57.5,45.6c-17.4,11.2-34.9,22.6-52.9,32.8c-24,13.6-49.3,24.8-75.7,33.2
	c-18.4,5.8-36.8,11.9-55.5,16.8c-12.6,3.3-25.6,5.3-38.5,7.1c-14.9,2.1-29.9,3.5-44.9,5.1c-6.6,0.7-13.3,1-19.9,1.8
	c-14.5,0.2-29,0.2-43.7,0.2c-1.9-0.3-3.5-0.8-5.1-1c-14.8-1.4-29.6-2.2-44.3-4.1c-15.9-2.1-31.9-4.6-47.6-8.1
	c-15.9-3.6-31.5-8.2-47-13.1c-22.1-7-43.4-15.8-64.4-25.6c-26.4-12.3-51.4-27.1-75.4-43.4c-14.2-9.7-27.8-20.5-40.8-31.8
	c-16.3-14.2-32.4-28.9-47.5-44.5c-16.7-17.3-31.6-36.2-45.5-56c-13.8-19.5-26.3-39.8-37.7-60.9c-16.1-29.9-28.8-61.4-38.6-93.9
	c-5.5-18.1-9.4-36.8-13.3-55.4c-2.7-12.9-4.5-26-6-39c-1.6-14-2.4-28.1-3.8-42.2C0,546.5,0,532,0,517.3c0.3-0.9,0.9-1.5,1-2.1
	c0.7-11.6,0.8-23.3,2.1-34.8c1.8-14.1,4.7-28,6.9-42.1c4.4-27.9,12.7-54.7,22-81.3c8.8-25.3,19.9-49.5,32.6-72.9
	c8.3-15.1,17.4-29.6,26.9-43.9c8.8-13.3,18.3-26.2,27.8-38.9c5.5-7.2,11.5-14.1,17.7-20.7c9.4-10.2,18.8-20.5,29-29.9
	c13.6-12.5,27.9-24.2,42-36.1c19.6-16.7,41.3-30.4,63.5-43.3c20.1-11.7,40.9-22.4,62.9-30.3c16.8-6,33.4-12.8,50.4-18.1
	c15.6-4.8,31.6-8.3,47.6-11.8c13.3-2.9,26.7-5,40.1-7c8-1.2,16.1-1.5,24.1-2.1c6.8-0.5,13.6-1,20.4-1.8C532.5,0,548,0,563.8,0
	c1.5,0.3,2.7,0.9,4,1c13.6,1,27.3,1.1,40.7,3.2c22.6,3.6,45.3,7.5,67.6,13.1c23.5,5.8,46.5,13.4,68.8,23.1
	c13.5,6,27.2,11.7,40.3,18.5c15.4,8.1,30.4,16.9,45.1,26.1c13.1,8.2,25.8,17,38.2,26.2c8.9,6.6,17.4,14,25.6,21.5
	c13.6,12.5,27.3,24.9,40.1,38.2c16.7,17.5,31.8,36.5,45.9,56.3c18.4,25.9,34.9,52.8,48.1,81.7c7.9,17.4,15.2,35.3,21.6,53.4
	c6.1,17.4,11.1,35.2,15.8,53c2.9,10.7,4.5,21.8,6.3,32.8c2.3,13.8,4.3,27.7,6,41.5c0.9,7.5,0.8,15.1,1.1,22.6
	c0.1,1.6,0.3,3.2,0.8,4.8C1080,532.5,1080,548,1080,563.8 M108,838.5c2.6,3.6,5.1,7.3,7.8,10.8c13.2,16.2,25.7,33,39.8,48.4
	c16.3,17.9,33.7,34.7,53,49.3c12.7,9.7,25.3,19.8,38.5,28.9c20.3,14.1,41.9,26.1,64.2,36.9c9.5,4.5,18.8,9.4,28.6,13.1
	c17.9,6.6,36,13,54.3,18.6c13.6,4.2,27.6,7.5,41.6,10.4c12.9,2.6,26,4.4,39,6c13.8,1.7,27.6,3.6,41.4,3.9c18.6,0.5,37.4-0.3,56-0.9
	c9.8-0.3,19.6-0.7,29.2-2c13.8-1.9,27.5-4.1,41.1-7c18.2-4,36.5-8.2,54.4-13.5c24.1-7.1,47.6-16.3,70-27.6
	c18.7-9.3,37.1-19.4,54.9-30.4c26.1-16.1,50.6-34.7,72.8-55.9c18.1-17.2,35.5-35.5,51.5-54.6c13.7-16.3,25.3-34.4,37.3-52
	c12.6-18.3,22.8-38,32.3-58c11.3-23.8,20.5-48.3,28.1-73.4c4.4-14.4,8-29.1,11.1-43.9c2.6-13,4.4-26.3,6-39.5
	c1.7-13.2,3.8-26.5,3.9-39.8c0.1-25.9-1-51.8-1.9-77.7c-0.2-6.6-0.9-13.2-2-19.6c-2-12.3-4.2-24.5-7-36.6
	c-3.6-15.7-6.9-31.4-11.9-46.6c-6.2-19-13.2-37.9-21.2-56.2c-7.9-18.2-16.4-36.4-26.6-53.4c-11.9-19.8-25.5-38.6-39.1-57.3
	c-8.6-11.9-17.7-23.5-27.9-33.9c-16.8-17-34.2-33.4-52.2-49.1c-12.4-10.9-26.1-20.2-39.5-29.9c-18.1-13-37.4-24.2-57.4-34
	c-12.5-6.1-24.7-12.9-37.6-17.8c-21.3-7.9-42.9-15-64.6-21.6c-13.2-4-26.9-6.8-40.5-9.5c-10-1.9-20.2-3-30.3-4.1
	c-14-1.5-27.9-3.4-41.9-3.8c-18-0.5-36,0.2-54.1,0.9c-10.9,0.4-21.9,1.5-32.7,3c-14.3,1.9-28.6,3.9-42.6,7.1
	c-19.1,4.2-38.2,8.8-56.9,14.6c-27.7,8.6-54.5,19.7-80,33.8c-14.2,7.9-28.9,15.3-42.2,24.6c-20.9,14.5-41.5,29.6-60.9,46
	c-14.6,12.2-27.8,26.4-40.7,40.5c-12,13-23,26.9-34,40.8c-16.1,20.2-29.5,42.1-41.7,64.7c-15,27.9-27.7,56.9-37.1,87.1
	c-4.5,14.2-8.9,28.5-12.1,43c-3.5,15.4-5.9,31-8.1,46.6c-2.1,15.3-4.6,30.6-4.8,45.9c-0.4,23.4,0.5,46.9,1.9,70.2
	c1,15.6,3.5,31.1,5.9,46.5c1.9,12.4,4,24.9,7.1,37c4,15.3,8.7,30.4,13.9,45.3c5.4,15.4,11.4,30.6,18.1,45.5
	c5.8,12.9,12.5,25.5,19.6,37.8C89.9,810.3,98.9,824.1,108,838.5"/>
<path class="st0" d="M665,564c-0.5,17.2-3.7,33.5-11.1,48.4c-10,20.2-21,40-31.7,59.8c-8.1,14.9-7.6,22.9,4.2,35.4
	c8.3,8.8,17.8,16.6,27.7,23.7c11,7.8,19.9,17.1,26.5,28.8c9.7,17,19.9,33.7,28.8,51.1c5,10,7.9,21.1,11.5,31.7
	c0.4,1.1-0.1,2.6-0.2,3.9c-0.8-0.7-1.7-1.3-2.4-2.1c-12.5-12.8-23.7-26.7-31.9-42.8c-1.9-3.7-3.9-7.4-6.1-10.9c-0.5-0.9-2-1.2-3-1.8
	c-0.1,1.1-0.6,2.5-0.2,3.3c3.4,7,6.6,14,10.6,20.6c8.5,13.8,19.4,25.6,30.2,37.6c10.6,11.9,19.8,24.9,28.9,38
	c3.2,4.6,5,10.5,4.3,16.7c-0.5,4.6-2.2,6.3-6.1,3.9c-6-3.6-12.2-6-19.1-6.9c-1.1-0.2-2.3-0.5-3.4-0.4c-9.8,1.2-11.6,0-13.5-9.8
	c-2.5-12.7-5.8-25.2-12.2-36.4c-5.8-10.2-12.9-19.7-19.9-29.3c-7.7-10.5-15.9-20.8-24-31c-1.3-1.6-3.6-2.3-5.5-3.4
	c0.7,1.9,0.9,4.2,2.1,5.8c7.5,10.4,15.4,20.5,22.8,31c8.2,11.6,15.9,23.4,23.7,35.2c0.6,1,0.8,2.4,1,3.6c0,0.7-0.3,1.5-0.5,2.3
	c-0.7-0.4-1.5-0.6-2-1.1c-13.8-13.4-28.3-26.2-41.2-40.4c-12.5-13.9-24-28.8-35-44c-7-9.7-13-20.4-12.3-33.3c0.2-2,1.1-4,1.2-6
	c0.1-1.7,0.2-3.8-0.8-4.9c-0.7-0.9-3-0.9-4.5-0.5c-2,0.4-3.7,1.7-5.6,2.1c-5.4,1.3-7.4-3.3-10.2-6.4c-1.4-1.6-2-3.8-3.1-5.7
	c-3.1-5.4-3-5.2,2.7-8.1c4.2-2,8.2-4.5,12.1-7c4.1-2.8,4.3-6.8,0.8-10.6c-6.7-7.3-14.6-12.8-23.5-17.1c-7.2-3.5-8.6-6.7-7.1-15
	c0.9-5.4,1.2-10.8,2-16.2c2.5-16.6,4.9-33.2,7.6-49.8c3.3-21.3,15.3-38.6,26.9-55.8c4.6-6.8,5.5-14.3,6.5-21.9
	c2-16.1,2.6-32.5,9.1-47.7c2.6-5.8,6.6-9.8,13.4-3.7c3.6,3.3,8.5,3,12.9-0.8c4.9-4.3,9.7-8.9,14.4-13.5c2.1-2,3-2.3,4.3,0.9
	c6.8,18,14.8,35.6,20.4,54c3.7,11.9,2.5,24.9-1.6,37.1c-0.7,2.1-2.8,4.8-4.6,5.1c-1.7,0.2-4.3-2-5.6-3.7c-1.7-2.2-2.4-5.1-3.8-7.5
	c-0.8-1.3-2.2-2.3-3.4-3.5c-0.5,1.8-1.4,3.6-1.4,5.3c0,3.4,0.7,6.8,0.8,10.1C666,561.4,665.3,562.5,665,564 M613,658.5
	c1,0.1,2.4,0.8,2.9,0.3c1.1-1,1.9-2.5,2.6-3.8c5.9-11.6,11.9-23.1,17.4-34.8c2.8-5.9,6.4-12.2,6.8-18.5c1.4-21.2,1.6-42.4,2.3-63.6
	c0-1,0.2-2.1-0.1-3c-0.1-0.7-0.8-1.3-1.3-2c-0.5,0.6-1.2,1-1.6,1.6c-0.5,0.9-0.8,2-1,3.1c-1,6.9-2.2,13.7-3,20.7
	c-1.4,13.2-2.6,26.5-4,39.8c-0.5,4.1-0.7,8.3-2.1,12.1c-2.4,6.5-5.7,12.6-8.7,18.9C619,638.4,614.2,647.3,613,658.5"/>
<path class="st0" d="M487.3,519.3c5.5-2.9,10.6-5.9,16-8c9.3-3.6,15.6-2.2,21.2,6c5.7,8.3,10.5,17.3,14.5,26.5
	c2.7,6.3,3.9,13.5,4.9,20.4c0.9,6.7-2.6,12.6-6.5,17.7c-9.5,12.5-20.9,23.3-35.5,29.5c-6.5,2.8-13.8,3.7-20.7,5.6
	c-14.7,4.2-28.2,10.8-38.8,22.2c-4.9,5.3-5.5,11.7,0.4,19.9c4.9,6.8,10.1,13.6,16.3,19.2c13.2,12,19.1,27.2,21.8,44
	c1.7,10.3,3.6,20.6,3.9,30.9c0.9,23.6,0.5,47.4,1.4,71c0.5,13.6,1.5,27.3,6.9,40.1c2,4.5,5.1,8.7,8.4,12.5c3.8,4.4,3.3,9.3,1.3,13.4
	c-2.1,4.5-6.8,7-12,6.7c-9.4-0.4-18.7-1.4-28.1-1.9c-9.7-0.4-18.6,3-27.7,5.5c-4.6,1.2-9.3,2.3-14,2.4c-12.2,0-24.4-0.2-36.6-1.1
	c-4.7-0.3-9.4-2.1-13.8-3.8c-4.7-1.9-4.9-5.2-0.8-8c8-5.5,17.2-7.7,26.4-10.1c11.8-3,23.7-6.2,35.3-10c8.6-2.9,12.6-10.2,13.4-18.7
	c0.9-11.2,1.9-22.6,0.8-33.7c-1.2-12.9-3.7-25.9-7.4-38.4c-4.6-15.3-11.4-29.9-16.6-45.1c-2.9-8.6-4.8-17.7-6.6-26.7
	c-1.3-6.7,1.6-12.5,5.7-17.5c3.2-4,2.8-8.1,1.1-12.2c-2.5-6.3-6.5-12.1-8-18.6c-1.2-4.8-0.3-10.5,1.3-15.3
	c3.6-11-3.8-21.9-13.8-23.7c-7.8-1.5-9.5-6.4-4.4-12.5c11-12.8,21.8-25.8,33.3-38.1c10.4-11.1,21.5-21.6,32.8-31.8
	C470.5,531,479,525.5,487.3,519.3 M442,757.5c4,9.7,7.9,19.4,12.1,29c3.1,7.2,6.5,14.3,9.9,21.4c0.5,0.8,1.5,1.4,2.3,2.1
	c0.2-1,0.8-2.1,0.6-3c-0.7-3.2-1.8-6.3-2.8-9.4c-6.3-20.2-13-40.3-19-60.6c-2.3-7.8-3-16-4.8-24c-0.4-1.9-2.4-3.3-3.6-5
	c-0.6,1.9-1.5,3.8-1.6,5.7C434.2,728.6,436,743.1,442,757.5 M487.5,875c-1.9-2.9-3.6-5.8-5.7-8.6c-0.8-1-2.2-1.6-3.4-2.3
	c-0.1,1.4-0.7,3-0.3,4.2c1.2,3.7,2.5,7.4,4.5,10.6c1,1.5,3.7,2.1,5.6,3.1C488.1,879.8,488.1,877.7,487.5,875"/>
<path class="st0" d="M352.3,917.3c7.7-0.3,15.2-0.2,22.7-0.3c12.5-0.3,25-0.6,37.5-1c10.9-0.3,21.8-0.7,32.6-1
	c17.7-0.4,35.4-0.6,53.1-1c13.5-0.3,27-0.7,40.5-1c14.8-0.3,29.5-0.7,44.3-1c13.5-0.3,27-0.5,40.5-1c12.1-0.5,24.2-1.3,36.3-2
	c6.8-0.4,7.8,0.2,8.2,6.8c0.7,13.9,1.5,27.8,1.9,41.6c0.4,10.6,0.1,10.6-10.8,10.6c-16.5,0-33-0.1-49.5,0
	c-77.9,0.3-155.8,0.6-233.8,1c-7.5,0.1-15.1,0.6-22.7,1c-2.4,0.1-4.1-0.1-4.2-3.3c-0.1-7.5-0.8-15-0.8-22.5c0-7.9,0.5-15.8,1-23.6
	C349.2,919.5,351,918.5,352.3,917.3"/>
<path class="st0" d="M575,326c-4.4,4-8.3,8.3-13.1,10.9c-19.9,10.6-40.1,20.7-60.1,31.1c-14.4,7.6-28.9,14.8-42.8,23.2
	c-6.5,3.9-11.4,10.2-17.1,15.4c-0.9,0.8-2,1.6-3,2.4c-1-1.4-2.3-2.6-2.8-4.1c-2.6-7.3-5.3-14.6-11.5-19.7c-3.8-3-8.4-5-12-8.3
	c-4.9-4.5-9.1-9.8-13.6-14.7c-1.1-1.1-2.4-2-3.7-3c0.2,1.7-0.3,3.7,0.5,5c3.8,5.8,7.5,11.8,12,17c7.1,8,14.8,15.5,22.2,23.4
	c0.9,1,1.2,2.7,1.9,4c-1.7-0.1-3.5,0-5.1-0.3c-11-2.5-17.9-10.6-23.6-19.2c-15.5-23.3-30.1-47.2-45.2-70.7
	c-5.4-8.4-11.1-16.5-19.5-22.4c-4.7-3.3-5.5-8.8-6.4-13.8c-1.4-8.7-1.5-17.6-3.3-26.2c-1.1-5.1-4.7-9.6-6.8-14.6
	c-2.6-6.1-4.8-12.4-6.9-18.6c-0.3-1,0.9-2.5,1.5-3.8c0.8,0.8,1.8,1.5,2.4,2.5c5,7.9,9.8,15.9,14.9,23.8c0.6,1,2,1.5,3,2.3
	c0.2-1.3,0.8-2.8,0.3-3.8c-4.4-8.9-9.2-17.8-13.6-26.8c-0.9-2-0.7-4.7-1-7c2.3,1,5.5,1.3,6.7,3c5.8,8.4,12.1,16.7,13.8,27.3
	c0.2,1.3,2.1,2.5,3.1,3.7c0.3-1.6,0.9-3.2,0.7-4.7c-0.9-10.9-7.1-19.7-11.3-29.3c-1.1-2.4-1.9-4.9-2.5-7.4c-0.2-0.8,0.4-1.7,0.6-2.6
	c0.9,0.3,2.1,0.3,2.6,0.9c3.6,5.1,8,9.9,10.5,15.6c2.9,6.8,4.1,14.3,6.3,21.4c0.3,1.2,1.4,2.1,2.2,3.1c0.6-1.2,1.8-2.6,1.6-3.7
	c-2-8.4-4.4-16.8-6.3-25.3c-1.2-5.2-1.9-10.6-2.5-15.9c-0.2-1.3,0.8-2.7,1.3-4c1.2,0.9,3,1.5,3.5,2.7c2.9,6.2,6.1,12.2,7.9,18.7
	c2.6,9.3,4.2,19,6.2,28.4c0.2,0.8,0.8,1.4,1.2,2.1c0.8-0.6,1.9-1.1,2.1-1.9c1.7-5.2,3-10.4,4.8-15.5c1-3,1.2-6.9,6.4-6.7
	c4.2,0.1,5.2,2.2,5.5,5.6c1.1,10.7-1.6,20.8-5.7,30.6c-3.9,9.4-6.5,19.1-5.1,29.3c0.3,2.9,2.1,6,4,8.2c10.5,11.7,21.7,22.9,31.6,35
	c8.1,9.8,14.8,20.8,22.2,31.2c1.3,1.9,2.8,3.8,4.6,5c0.9,0.7,4,0.2,4.2-0.3c1.2-4.9,5.3-5.8,9.1-6.8c9.6-2.8,14.4-10.8,19.9-18
	c8.5-11.4,18.8-18.6,33.7-20c11.3-1.2,21.6,2.6,32.5,3.2c5.6,0.3,11.2-0.8,16.9-1.3c5.5-0.5,11-1.4,16.5-1.4
	C574,320.1,575.9,322.2,575,326"/>
<path class="st0" d="M591,1032c-15.5,0.3-30.6,1-45.6,0.9c-11.9-0.1-23.8-0.5-35.6-2.1c-21.4-2.7-42.8-5.5-63.8-10
	c-23-5-45.5-11.9-67.1-21.3c-7.4-3.2-15-5.7-22.4-8.7c-1.1-0.4-1.7-2.2-2.5-3.3c1.3-0.4,2.5-1.3,3.8-1.2c4.4,0.4,8.8,1.6,13.2,1.6
	c36.3-0.2,72.6-0.5,108.9-0.9c18.8-0.2,37.5-0.7,56.3-1c19.8-0.3,39.7-0.7,59.5-1c31.2-0.4,62.4-0.7,93.6-1c17-0.1,34.1,0.1,51.1,0
	c3.7-0.1,7.4-0.8,11.1-0.9c0.8-0.1,1.7,0.8,2.5,1.2c-0.6,0.9-0.9,2.3-1.7,2.6c-22.2,9.9-43.4,22.3-67.2,28.5
	c-13.5,3.4-26.9,7.1-40.5,9.4c-15.9,2.8-32,4.2-48,6.2C594.9,1031.2,593.2,1031.7,591,1032"/>
<path class="st0" d="M817.3,240.8c-1.2-3.4-2.8-6.4-2.9-9.5c0-1.7,2.2-4.6,4-5.1c5.2-1.6,10.7-2.2,16.2-3.2c3.5-0.6,6.4,0.8,8.4,3.6
	c4.2,5.8,11.1,10.2,10,18.9c-0.3,2-0.2,4.3-1.1,6c-2.2,4-0.5,7.4,1.2,10.8c0.3,0.7,1.4,1.1,2.1,1.7c0.6-0.9,1.7-1.7,1.7-2.6
	c0.2-4,0.1-8,0.1-12c0.1-0.8,0.6-1.6,0.9-2.4c0.7,0.5,1.6,1,2.2,1.6c1,1.2,2,2.5,2.8,3.8c3.7,6,5,5.9,9.4,0.8
	c9.5-10.8,5.9-16.6,0.8-26.6c-0.2-0.3-0.7-0.5-0.7-0.7c-0.4-2.6-0.7-5.2-1-7.8c2.1,0.8,4.6,1.1,6.4,2.4c2.3,1.5,4,3.9,6.1,5.9
	c2.7,2.6,5.3,2.8,8.3,0c1.9-1.7,4.4-2.8,6.6-4.1c0.7,2.7,2.1,5.4,2.1,8c-0.3,19.1-9.9,32.7-25.5,42.7c-3.3,2.1-7,3.7-9.9,6.2
	c-1.5,1.4-1.7,4.2-2.4,6.4c1.9-0.3,4.2-0.1,5.7-1c6-4,12.7-7.6,17.6-12.8c6.8-7.5,15.4-13.8,18.7-24.2c0.6-1.8,2.9-3.1,4.4-4.6
	c0.1,2.1,0.7,4.4,0.4,6.4c-1.1,7.5-2.6,14.9-3.9,22.4c-1,5.9-6.1,10.7-12.7,12.3c-1.5,0.3-2.8,1.7-4.1,2.6c1.4,0.4,2.9,1.3,4.4,1.2
	c5-0.3,8.7,1.2,10.5,6.3c0.4,1.2,2,1.9,3.1,2.8c0.3-1.2,1-2.4,0.7-3.5c-2.5-9.5,1.6-18.3,3.2-27.4c1.4-8.6,15.8-12.9,22.5-7
	c2.5,2.2,4.8,4.6,7,7.1c0.8,0.9,0.9,2.3,1.3,3.4c-1.1,0.1-2.2,0.3-3.3,0.4c-0.1,0-0.3-0.2-0.4-0.3c-8-3.8-11.5-2.5-11.1,8.4
	c0.1,4.2,1.3,8.4,1.9,12.6c1.1,7.5-1.3,14.3-6.7,19.2c-6.7,6.2-14.4,10.9-24.3,11.3c-7.6,0.3-15.2,1.4-22.6,3.2
	c-3.1,0.7-5.6,4.1-8.4,6.1c-1.2,0.9-2.6,1.7-3.9,2.5c-0.7-1.4-1.8-2.8-2-4.3c-1.5-8.6,5.7-11.6,10.8-15.6c4.7-3.7,8.7-7.6,9.1-13.9
	c0.2-3.5-0.6-4.8-4.1-2.7c-4,2.4-8.2,4.3-12.3,6.5c-7.8,4.2-9.4,11.7-10.6,19.5c0,0.3,0.1,0.7,0,1c-1.3,2.5-2.7,5-4,7.5
	c-2.3-1.4-5.5-2.3-6.6-4.3c-4.3-8.4-8.3-17-5.4-27c2.1-7.6,3.9-15.3,6.1-22.9c0.6-1.9,2.6-3.3,3.6-5.1c0.7-1.3,0.8-2.9,1.2-4.3
	c-1.6,0.3-3.6,0.2-4.7,1.1c-4.4,3.4-6.1,8.3-7.2,13.5c-0.8,4.3-1,8.8-2.1,13.1c-0.7,2.8-1.3,6-5.2,6.7c-2.4,0.5-3,1.6-2.1,4.5
	c1.7,5.7,2.6,11.7,3.2,17.6c0.2,1.6-1.7,4.3-3.3,4.9c-2.3,0.9-4.8,0.4-6.1-2.8c-1.4-3.1-3.4-6-5.4-8.7c-5-6.6-4.9-14.7-7-22.2
	c-0.3-0.9-0.5-1.8-1-2.5c-0.4-0.7-1.2-1.1-1.7-1.6c-0.5,0.7-1.3,1.4-1.2,2c0.3,5,1.1,10,1.3,14.9c0.1,4.8,0.1,9.7-0.5,14.4
	c-0.5,3-4.8,4-6.5,1.4c-2.4-3.8-4.1-8-5.3-12.3c-1.2-4.2-1.6-8.7-2.1-13.1c-0.8-7.6-1.3-15.2-2-22.7c-0.2-2.2,0.4-2.2,2.3-1.7
	c1.3,0.3,4.1-0.5,4.3-1.2c0.6-2.6,0.6-5.4,0.2-8c-0.1-0.8-3-2-4-1.6c-6,2.8-9.5-0.6-12.8-4.6c-4.2-5.4-9-10.5-12.2-16.5
	c-7.7-13.9-5.2-31,5.5-42.7c1.9-2.1,4.4-3.7,6.8-5.3c3.4-2.3,7.4-4,8.8-8.4c0.2-0.6,0.8-1.1,1.3-1.6c0.6,0.7,1.5,1.3,1.7,2.1
	c1.2,3.9-3,14.5-6.6,17.1c-6.9,5-8.5,15.7-3.3,23.6c0.3,0.5,0.7,0.8,1.1,1.2c1-1,2.8-2.1,2.8-3.1c-0.7-6.9,3.5-10.3,8.8-13.2
	c2-1.1,3.6-2.8,5.3-4.2c1.1-0.9,2.3-1.7,3.5-2.5c0.4,1.9,1.5,4,1.1,5.7c-0.9,4.6-2.4,9-3.6,13.5c-1.4,5.1-0.1,9.6,2.7,14.1
	c4.3,6.8,8,14,12.1,21c2,3.5,4.7,4,7.5,0.9c4.3-4.9,8-10.1,8.7-16.9c0.1-1.5,0.1-3.6-2.2-1.6C825.4,245.8,821.5,243.7,817.3,240.8"
	/>
<path class="st0" d="M880,781c3,7.9,6.7,14.7,13.7,19.3c5.4,3.6,17.5,3.7,22.7-0.1c5.1-3.8,8.1-11.4,5.8-19.9
	c-1.7-5.7-3-11.1-8.7-14.4c-3.4-2-6.6-3.3-9.4,0.2c-2.5,3.1-1.2,9.9,1.9,12.3c0.9,0.8,2,1.5,3.1,2.2c4.7,3.2,5,5.3,1.9,10.9
	c-2.1,3.7-5.1,4.4-9.6,2.5c-6.9-2.9-12.5-6.9-15.5-14.3c-3.7-9-0.4-23.6,6.8-27.7c9.4-5.3,26.1-4,34.6,2.7
	c9.9,7.9,15.4,18.2,14.5,30.8c-0.5,5.9-2.9,11.8-5.2,17.3c-3.7,8.5-7.9,16.6-6.6,26.3c0.7,5,1.7,10.1,1.9,15.2
	c0.3,8.1-5,11.5-13,9.1c-11.2-3.3-17.8-11.4-21.8-21.6c-2.4-6.2-3.3-12.9-5.2-19.3c-0.3-1.1-1.6-2.5-2.7-2.7
	c-14-3.3-20.1-14.3-23.7-26.2c-1.9-6.4-5.4-7.3-10.3-7.6c-13.3-0.6-13.4-0.5-17.2,12c-2.1,6.9-6.4,12.3-11.6,17
	c-5.1,4.5-7.6,9.2-6.7,16.5c1.4,10.5-3.7,19.4-12.2,25.2c-10.4,7.1-22.6,9.8-35.2,10.2c-1.5,0.1-3.2-0.2-4.5-1
	c-2.7-1.5-5.8-2.6-5.9-6.8c-0.1-4.2,3.1-5.3,5.7-7.1c5.5-3.7,11.5-7,16.8-11.1c3.7-2.8,3.6-7,0.5-10.5c-4.5-5-9.4-9.7-13.7-14.8
	c-5-6-9.9-12.2-9.2-20.7c1.3-15.8,18.1-31.9,35.4-25.8c8.5,2.9,14.4,9.3,16.4,17.8c1.9,7.9-1.8,14.7-8.2,20
	c-3.6,3-11.2,4.2-15.3,2.1c-4.4-2.3-5.5-6.3-5.3-10.8c0.3-5.4,4-8.7,9.5-9.3c2.8-0.3,6.4,1.9,8.5-1.8c-2.7-1.2-5.3-3-8.1-3.6
	c-5.2-1.1-10.3-0.8-15.3,2.2c-3.7,2.2-4.9,5.8-4.4,9c1.9,13.2,8.4,24.3,25,24.1c3.1-0.1,7.1-2.2,8.8-4.7c4-5.8,7.3-12.3,10-18.8
	c2.8-6.8,0.9-13.3-3.9-18.5c-4-4.4-8.5-8.3-13-12.1c-3.9-3.3-3.4-7.6-3-11.7c0.4-2.9,3.2-3.1,5.9-3c27.3,0,54.7,0,82,0
	c2.5,0,5.1-1.2,7.5-0.8c2,0.3,3.7,2.2,5.5,3.3c-1.5,1.2-2.8,2.9-4.5,3.4c-9.6,2.6-15.3,8.7-16.4,19.4
	C878.7,770.3,879.7,775.4,880,781"/>
<path class="st0" d="M889,474c0,13.3-0.1,26.2,0,39c0.3,20.7,0.6,41.5,1,62.2c0.3,14,0.7,27.9,1,41.8c0.1,5.3-2.7,9.2-7.1,8.8
	c-4.1-0.3-6.9-2.6-7-7.6c-0.1-10-0.7-20-0.9-30c-0.4-27.1-0.6-54.1-1-81.1c-0.3-19.5-0.7-39.1-1-58.6c-0.1-3.9-0.1-7.8,0.1-11.7
	c0-0.8,0.5-1.8,1.1-2.4c0.7-0.9,1.7-1.5,2.5-2.2c-1.1-0.1-2.3-0.1-3.4-0.2c-4.7-0.3-9.4-1-14.1-0.9c-9.2,0.1-18.5,0.7-27.7,0.8
	c-3.9,0.1-7.8-0.8-11.6-0.8c-4.6,0-9.1,0.7-13.6,0.9c-6.1,0.1-12.1-0.2-18.2,0.1c-3,0.1-4.1-1.3-4.1-3.9c0-15.8-0.1-31.6,0.2-47.4
	c0-1,2.5-2.7,3.9-2.7c12.5-0.2,25-0.1,37.5-0.1c17.9,0,35.7,0,53.5,0c1,0,2,0.1,3,0c9.9-1,9.9-1,9.9,9.2c0,13.3,0,26.6,0,40
	c0,4.8-1,5.5-5.9,4.5c-1.2-0.2-2.5,0.3-3.7,0.4c0.6,0.6,1.5,1.1,2,1.8c1,1.7,2.4,3.5,2.5,5.4C888.4,450.7,888.7,462.1,889,474
	 M812.5,421c2.4-0.6,6.5,1.9,6.5-3.4c0-6.1,0.1-12.3-0.1-18.5c-0.1-4.1-1.2-7.4-6.7-6.2c-2.2,0.5-4.6,0.3-6.9,0.1
	c-3.2-0.3-4.5,0.8-4.4,4.1c0.3,4.3,0.1,8.7,0.1,13C801,421,801,421,812.5,421 M875,393.5c-2.4-0.2-4.9-0.2-7.3-0.5
	c-3.3-0.4-5.3,1.7-5.4,4.3c-0.1,7,0.3,14,0.9,21c0.1,1,2.5,2.2,4.1,2.6c1.8,0.4,3.9,0.1,5.9,0.1c3.2,0.1,4.8-1.4,4.8-4.7
	c0-6,0.2-12-0.1-17.9C877.8,396.9,876.3,395.5,875,393.5 M837.5,392c-1.5,1.3-4.2,2.6-4.3,4c-0.4,7.2-0.3,14.6-0.1,21.9
	c0.1,1.1,1.9,2.5,3.2,3c1.5,0.5,3.3,0,4.9,0.1c2.7,0.2,3.9-0.8,3.8-3.6c-0.1-6.3,0.1-12.6,0-19C844.9,394.4,843.3,391.5,837.5,392"
	/>
<path class="st0" d="M380,511c-3.6-3.4-7.4-6.2-10.8-9.4c-5.7-5.4-4.1-9.3,2.8-12.8c7.9-4.1,15-9.6,22.4-14.7
	c10.6-7.4,20.8-15.4,31.7-22.4c6-3.9,12.9-5.3,20.3-2.1c2.3,1,5.8-0.5,8.6-1.2c7.5-1.7,12.2,1,10.8,7c-0.5,2.3-2.9,4.8-5.1,6.2
	c-9.6,6-19.5,11.6-29.2,17.5c-6.2,3.8-12.1,7.9-18,12c-1,0.6-1.9,1.5-2.4,2.5c-0.5,0.9-0.5,2.2-0.7,3.3c1.1-0.3,2.2-0.4,3.1-0.9
	c14.1-7.4,28.1-14.9,42.3-22.2c2.3-1.1,5.3-0.9,7.7-1.9c2.6-1,5.3-2.3,7.1-4.3c2-2,2.8-4.6,1.6-8.1c-2.5-7,0.1-13.9,1.9-20.7
	c1.6-6.3,2.9-12.5,0.8-18.7c-0.5-1.6-2.2-2.7-3.4-4.1c-0.5,1.5-1.1,2.9-1.5,4.3c-1.7,5.7-3.1,11.4-5.1,16.9c-1,2.5-3.5,3.5-6.7,4
	c-7.6,1.1-11.3-2.2-13.6-9c-2.4-7-5-14.2-0.5-21c10-15.1,23.1-19.7,39.8-14.1c9.4,3.1,15.7,12.2,14.9,22.2c-0.8,11-3.1,22-4.5,33
	c-1.5,11.2-4.1,22.2-2.5,33.7c0.9,6.5-4.6,11.2-11,9.9c-8.5-1.8-16.5-1.2-24.3,2.2c-12.2,5.4-25.2,6.4-38.2,8.1
	c-9.8,1.3-19.6,3.9-28.9,7.3C385,515.1,382.6,514.9,380,511"/>
<path class="st0" d="M781,868c8.7,0,16.8,0.1,25,0c23.3-0.3,46.7-0.6,70-1c12.2-0.2,24.4-0.7,36.6-1c1.3,0,3.2-0.5,1.4,2
	c-5.4,7.5-10.2,15.6-18.3,20.7c-1.5,1-3.3,2-5.1,2.2c-4.6,0.6-9.3,0.9-14,1.1c-10.4,0.4-20.8,0.5-31.1,1c-10.7,0.5-21.4,1.3-32.2,2
	c-4.3,0.3-4.3,3.5-4.3,6.6c0,16.5-0.3,33,0.1,49.5c0.2,5.9-2.3,8.8-7,11.5c-7.8,4.5-15.1,9.6-22.6,14.4c-1.2,0.7-2.4,1.3-3.6,2
	c-0.3-1.5-0.9-3-0.9-4.4c0.3-18.7,0.6-37.4,1-56.1c0.3-15.2,0.6-30.4,1.1-45.5C777.2,871.3,779.3,869.7,781,868"/>
<path class="st0" d="M617,302c1.3,5.9,3.1,11.3,3.9,16.8c1.1,7.9,1.6,15.8,2,23.7c0.3,4.8-0.5,5-4.7,3.3c-7-2.9-14.2-5.2-21.3-7.8
	c-3.3-1.3-7.2-2.2-9.5-4.5c-2.6-2.6-4.5-6.5-5.2-10.2c-1.9-8.9-4.7-10.9-13.6-9.4c-9.9,1.7-19.9,3.3-29.9,3.9
	c-5.3,0.3-10.9-1.4-16.2-2.9c-4.7-1.5-6.3-6.6-3.4-10.4c5.8-7.5,11.4-15.2,18-21.9c11-11.2,24.6-18.3,39.3-23.4c2.5-0.8,5.3-1,8-1.2
	c3.8-0.3,5.3,2.1,6.7,5.3c1.3,2.8,3.2,5.5,5.5,7.7C605.7,279.6,614,288.7,617,302"/>
<path class="st0" d="M549.8,245.3c2.3,0.7,4.4,1.4,6.6,1.7c4.3,0.4,8.7,0.4,13,1.1c1.7,0.3,4.1,2,4.3,3.4c0.2,1.3-1.6,3.7-3.1,4.4
	c-9.3,4.3-18.4,9.4-28.9,10c-7.1,0.4-10.5,5.6-14.7,9.9c-1.2,1.2-2.5,2.1-3.8,3.2c-0.4-1.4-0.6-2.8-1.3-4c-0.9-1.8-2.2-3.4-3.4-5
	c-0.5-0.7-1.4-1.3-1.4-1.9c-0.3-4.1-4.1-6.4-5.1-9.8c-1.6-5.1-4.9-6-9.3-5.3c-3,0.5-6.2,0.5-8.8,1.8c-3.8,1.8-5.1,8.1-3.2,12.4
	c2.7,5.9,5.8,11.6,8.2,17.6c2.7,6.5,7.9,8.6,14.3,9.2c2.6,0.3,5.2,1,7.8,1.5c-2.3,1.5-4.5,3-6.7,4.5c-6.9,4.6-14.1,8.9-20.7,14
	c-13.2,10.5-26.2,21.3-39.2,32.1c-2.5,2.1-3.6,0.4-4-1.3c-0.5-2.4-1.3-5.8-0.1-7.2c3.8-4.6,0.6-7-2-9.8c-0.7-0.8-1.5-1.4-2.1-2.2
	c-0.5-0.6-0.8-1.3-1.2-2c0.7-0.2,1.4-0.5,2.2-0.6c5.5-0.4,11-0.6,16.5-1c0.8-0.1,1.5-0.7,2.3-1c-0.6-0.7-1.2-1.8-1.8-1.9
	c-3.7-0.5-7.4-1.2-11.1-1c-4.2,0.2-4.2-1.2-2.5-4.2c3.5-6.2,6.7-12.6,10.6-18.5c7.4-11.2,10.4-23.2,7.9-36.5
	c-0.6-3.2,0.1-6.7-0.2-10c-0.2-3.3-0.7-6.3-4.4-8.2c-1.7-0.9-2.4-3.9-3.5-5.9c2.1-0.9,4-2.4,6.2-2.7c2.1-0.3,4.3,0.8,6.5,0.8
	c1.1,0,2.2-1,3.3-1.5c-0.7-0.7-1.3-1.6-2.2-2c-3.6-1.7-7.4-3.1-10.9-5.1c-2.6-1.4-4.1-4.1-2.5-7c1.8-3.5,5.4-2.8,8.3-1.9
	c3.7,1,7.1,2.9,10.6,4.4c6.6,2.9,8,10,3.3,17c-7.2,10.8-7.5,22.7-5.6,34.9c0.5,2.9,1,5.9,2.2,8.6c0.5,1.3,2.7,1.8,4.1,2.7
	c0.4-1.7,1.4-3.4,1.1-5c-0.9-5-2.5-10-3.4-15c-2.2-12.9,12.7-28.1,25.5-25.9c3.3,0.5,6.2,2,6.7,6.5c0.3,2.8,2.2,5.9,4.2,8.1
	c2.9,3.3,7.1,2,8.6-2.1c0.4-1.2,0.7-2.4,1-3.6c1-5.1,4.1-7.1,8.9-5.6C541.1,241.8,545.3,243.5,549.8,245.3 M495.5,293
	c-1.5-0.7-3.1-1.4-4.6-2c-0.9-0.3-2.6-0.7-2.8-0.5c-0.6,1.3-1.3,2.8-1,4c0.4,1.4,1.6,3.5,2.7,3.6c2.9,0.5,5.8,0.1,8.7-0.2
	c0.6-0.1,1-1.2,1.5-1.8C498.7,295.2,497.3,294.4,495.5,293"/>
<path class="st0" d="M321,456c0.7,2.6,1.9,4.6,1.9,6.7c-0.1,3.7,1.3,6.1,4.7,7.5c1.3,0.5,2.6,1.1,3.8,1.8c3.7,2.3,7,4.8,5.6,10
	c-1,3.8,1.3,6.2,3.9,8.4c0.6,0.5,1.2,0.9,1.8,1.4c-0.8,0.4-1.6,1.1-2.5,1.1c-11.2,0-21.4,4.3-31.7,7.9c-0.8,0.3-3.1-1.4-3.6-2.6
	c-1.5-3.7-2.6-7.6-3.6-11.4c-1.3-5.4-4.7-7.7-10-7.8c-4.2-0.1-7.5-3.2-7.2-7.4c0.2-5-2.1-8-5.2-11.9c-5.4-6.6-11.3-13.4-15.1-21
	c-2.3-4.4-4.1-8.8-7.8-12.3c-1.3-1.3-3.1-3.6-2.8-5.1c1.1-5.4-2.5-7.1-5.8-9.6c-5-3.8-4.6-7.4,0.5-10.7c6.9-4.5,14-8.8,20.9-13.4
	c4.1-2.7,12.9,3.1,15.3,8.3c2.7,5.8,5.1,12.2,11.8,15.2c1.1,0.5,2.1,2.8,2,4.2c-0.3,3.8,1,6.5,3.8,9.1c1.3,1.2,2.3,3.6,2.2,5.4
	c-0.3,4.3,1.9,6.1,5.5,7.2c7.2,2.3,6.8,2.5,6.9,10.6C316.3,450.2,319.3,452.9,321,456"/>
<path class="st0" d="M696.8,246.3c-4.9-3.6-9.6-6.9-14.2-10.2c-0.9-0.7-1.7-1.6-2.6-2.3c0.7-0.6,1.4-1.7,2.1-1.7
	c6.9-0.1,13.8-0.5,20.6,0.3c4.4,0.5,7.8,3.3,9.5,8.1c1.1,3.3,3.3,6.3,5.2,9.3c2.2,3.5,4.7,2.5,6.5-0.3c3.8-5.5,4.4-5.6,8.5-0.7
	c1.5,1.9,3.4,3.4,5.2,5.1c0.4-2.6,1.1-5.2,1.4-7.9c0.7-6.4,1.1-12.8,2.2-19.1c0.3-1.5,2.9-3.6,4.4-3.7c2.5,0,5.1,1.3,4.4,4.9
	c-0.3,1.4-0.4,2.8-0.8,4.2c-2.2,7.9,0.1,15.7,1.2,23.5c0.1,0.8,0.9,1.5,1.4,2.2c0.7-0.6,2-1,2.1-1.7c0.4-2.1,0.7-4.2,0.5-6.3
	c-0.5-6.6-1.8-13.2,2.6-19.1c0.8-1,1.7-1.9,2.6-2.8c0.4,1.4,1.2,2.9,1.4,4.4c0.4,3.8,0.4,7.7,1.1,11.5c0.3,1.9,1.5,3.8,2.8,5.3
	c6,7.2,12.9,13.8,18.1,21.6c2.8,4.3,3.3,10.4,3.9,15.8c1.1,9.5,1.5,19.1,2.1,28.7c0.2,4.2,0.6,8.5-0.2,12.6c-0.6,3.3-3,5.2-6.9,3.1
	c-5.6-3.1-9.6-7.3-11.9-13.2c-2.9-7.8-6.2-15.2-14.5-18.9c-0.5-0.3-1-0.8-1.5-1.3c0.7-0.5,1.3-1.3,2.1-1.7c7-3,12.3,0.5,17.2,4.8
	c2.9,2.6,5.4,5.5,8.2,8.1c0.5,0.5,1.6,0.5,2.4,0.7c0-0.8,0.3-1.8,0.1-2.6c-2.4-6.9-7.6-11.4-13.6-15.2c-7.8-4.9-16.1-6.5-25.2-7
	c-12.2-0.7-24.3-3.1-32.9-13.2c-2.6-3.1-4-7.3-6.1-10.9C703.2,255.9,700.1,251.2,696.8,246.3"/>
<path class="st0" d="M450.8,177.8c-6.1,10.9-11.8,21.8-17.9,32.4c-1.4,2.5-3.6,6.1-7.2,4.6c-3.2-1.4-5.4-4.7-4.6-8.8
	c0.2-1.3,1.1-2.6,2-3.6c2.9-2.7,2.8-5.3-0.1-7.9c-2.8-2.6-5.3-6-3.8-9.7c1-2.4,3.8-4.6,6.3-5.6c3.8-1.5,6-3.7,5.5-7.7
	c-0.7-5,1.4-7.4,6.1-9.4c3.1-1.4,5.7-4.9,7.8-7.9c2.6-3.7,4.9-5.2,9.3-2.7c7.2,4.1,10.8,2.1,12.8-6.3c0.9-3.8,3.5-5,7.4-3.3
	c1.2,0.5,2.6,1,3.7,1.7c3,2,5.1,2.6,7.3-1.3c3.1-5.5,6-5.7,10.9-1.5c2.4,2,4.6,2.9,7.7,1.3c2.9-1.6,5.7-1.3,8,1.4
	c2,2.4,4.5,3.1,7,1.4c2.9-1.9,5-0.5,6,1.7c2.4,5.8,7.1,8.8,12.3,11c3,1.3,3.5,3.7,2.6,5.3c-4.1,6.9,0,13.3,0.6,19.8
	c0.4,4.5,0.7,7.9-2.8,11.4c-2.5,2.5-3.4,6.5-5.2,9.8c-0.4,0.8-1.3,1.4-2,2.1c-0.8-0.8-1.7-1.5-2.4-2.4c-0.2-0.3,0-1-0.1-1.5
	c-1.3-9.7-8.7-10-15.7-7c-4.5,1.8-1.9,5.7-1.9,8.8c0.2,6.5,1,13,0.4,19.4c-0.4,4.3-11.6,7.7-14.9,4.9c-1.1-0.9-2-2.8-1.8-4.1
	c0.6-4.8,1.6-9.6,2.7-14.4c1.6-6.2-1.6-10.6-8-10.7c-6.3-0.1-12.7-0.5-18.2,3.1c-3.1,1.9-6.2,4.4-8.3,7.3c-3.1,4.4-4.7,4.9-7.8,0.6
	c-1.8-2.5-3.5-5.2-4.8-8c-0.7-1.3-1.1-3.7-0.4-4.5c1-1,3.6-1.9,4.7-1.3c4.1,2.1,7.4,0,10.7-1.5c8.2-3.7,16.4-5.9,25.6-3.9
	c7.9,1.8,15.5-1.3,23.2-2.8c3.8-0.7,8.1-1.8,11.6-0.8c6.6,1.9,10.4-4.6,9.4-10.3c-2.9-16.6-14.1-18.6-26.7-19.8
	c-10.7-1-21.2,1.6-31.3,5.1c-6.6,2.2-13,4.9-19.1,8.2C454.7,171.8,453.1,175.1,450.8,177.8"/>
<path class="st0" d="M577,390c-1.4-5.2-5.4-3.2-7.7-2.5c-5.8,1.7-11.6,2.5-17.5,1.5c-8-1.3-10.4-8.1-12.7-14.3
	c-3.6-9.6-1.3-16.4,8.2-22.2c7.7-4.8,15.9-9,24.3-12.3c6.5-2.5,13.5-2.1,20.1,1c8.1,3.9,17.5,3.9,25,9.7c5.9,4.5,10.5,9.5,11.1,16.9
	c0.2,2.8-1.5,6-2.9,8.7c-1.4,2.6-3.4,4.9-5.2,7.3c-1.5-2.4-2.8-5-4.7-7.2c-2.4-2.8-5.3-5.4-8-8.1c-1.3-1.4-2.6-2.9-4-4.3
	c-1.8-1.8-3.4-4.4-5.4-4.9c-1.6-0.3-5.3,2.4-5.3,3.6c0.1,2.7,1.6,5.6,3.3,8c1,1.5,3.6,1.8,5,3.2c1.7,1.6,3.6,3.5,4.2,5.7
	c1.1,3.7,3.3,5.6,6.5,7.3c6,3,7.5,9.7,3.7,15.6c-0.8,1.3-1.4,2.7-2.2,4c-2.9,4.2-4.9,4.3-8.7,1c-1.3-1.1-2.9-1.8-4.4-2.7
	c-2.1-1.3-5-2.3-6.1-4.2c-2.9-4.8-6.8-6.2-12.1-6C580,394.8,578.5,392,577,390 M567,371.5c2.1-0.7,2.8-1.7,1.3-3.8
	c-2.5-3.3-11.2-5.3-14.5-2.8c-1.6,1.2-3.7,3.5-3.5,5.2c0.2,2.7,3,3.2,5.7,2.9C559.5,372.6,563,372.3,567,371.5"/>
<path class="st0" d="M817.3,698.3c-3.4,3.4-7.6,3.5-10.7,1.4c-1.8-1.2-2.3-5-2.5-7.7c-0.4-4.5-0.1-9-0.1-13.5c0-6.8,2.7-9.5,9.6-9.5
	c23.8,0,47.7,0,71.5,0c2.3,0,4.8-0.5,6.9,0.1c2.2,0.6,5,1.9,5.7,3.6c0.8,1.9,0.4,5.4-1,6.8c-3,3-2.2,5.1-1.3,8.8
	c1.3,5.3,0.6,11.2,0.6,16.8c0,12.1-3,14.4-14.8,11.9c-1.3-0.2-2.7,0-4,0c-23.3,0-46.6,0.1-70-0.1c-2.4,0-5.6-1.1-7-2.8
	c-1.6-2-1.7-5.2,0.7-7.6c2.3-2.3,4.4-2.2,7.7-1.9c5.9,0.6,12-0.9,18.1-1.7c0.5-0.1,1.2-1.5,1.2-2.4c0.2-2.6-0.2-5.3,0.2-7.9
	c0.3-2.3,1.3-4.5,2.4-6.5c0.7-1.2,2.1-1.9,3.2-2.9c-1.6,0-3.2-0.2-4.9-0.2c-1.5,0-3-0.1-4.5,0c-3.4,0.3-5.6,1.4-5.4,5.6
	C819,691.7,818,694.9,817.3,698.3 M872.5,704c8.5,0,8.5,0,8.5-8.3c0-1.5-0.3-3.1,0.1-4.5c0.5-2.1,1.3-4.1,2.3-6
	c0.4-0.9,1.4-1.4,2.2-2.1c-1.4-0.4-2.7-1-4.1-1c-1.3,0-2.7,0.8-4.1,0.9c-9,0.5-8.7,0.5-9.5,9.4c-0.5,5.3-2.3,8-7.8,7.7
	c-5.2-0.4-7.1-2.3-7.1-8c0-1.7,0.4-3.5-0.1-4.9c-0.6-1.6-2-3.8-3.3-4c-3.7-0.5-7.6-0.2-11.4-0.2c-0.4,0-0.8,0.4-1.1,0.6
	c0.2,0.1,0.5,0.3,0.8,0.4c6.4,3.1,5.2,9.1,5,14.5c0,3.9,1.5,5.6,5.5,5.5C856.1,703.9,863.8,704,872.5,704"/>
<path class="st0" d="M563.8,880.8c-0.8,4.3-1.2,8.5-1.9,12.5c-0.2,1-1.3,2.4-2.2,2.6c-3.3,0.6-6.6,0.9-10,1.1
	c-6.7,0.4-13.4,0.9-20.1,0.9c-4.3,0.1-8.7-0.4-13-1c-1-0.1-2.5-1.5-2.5-2.2c0.7-12.5-6.3-22.6-10.6-33.6c-2.4-6.4-2.2-11.8,2-14.8
	c3.2-2.4,7.3-4.4,11.2-5.2c13.2-2.5,26.2-0.9,38.8,3c5.9,1.8,9.6,8.1,9.5,15.3C564.8,866.5,564.3,873.5,563.8,880.8"/>
<path class="st0" d="M120.8,445.3c2.9,2.9,4.8,6.1,2.1,9.5c-2.2,2.8-5.2,3.5-9.4,2.5c-8.4-2.1-17.1-2.8-25.7-4.3
	c-10.7-1.9-21.4-3.9-32.1-5.8c-2.8-0.5-5.7-0.6-8.5-1.2c-6-1.4-8-7.9-4.1-12.6c7.2-8.8,14.4-17.7,21.5-26.5
	c4.7-5.8,11.1-7.1,15.4,1.3c2.3,4.6,4.8,9,7.2,13.5c1.2,2.2,2.2,2.3,3.8,0.3c3.8-4.5,7.7-9,11.8-13.2c3.9-4.1,8.3-4,11.9,0.5
	c8,10.1,16,20.2,23.5,30.7c1.6,2.2,1.8,6.2,1.1,9c-0.8,2.8-4.1,3.8-7,2.9c-1.8-0.5-3.6-1.6-4.8-3c-5.6-6.7-11-13.8-16.8-20.4
	c-0.8-1-4.1-1.1-5.2-0.2c-3.4,2.6-6.2,5.9-9.3,9c-0.5,0.6-0.8,1.3-1.2,2c0.9,0.2,1.7,0.5,2.6,0.7
	C105.2,441.7,112.9,443.3,120.8,445.3 M79.5,436c-2.5-4.1-4.9-8.3-7.4-12.4c-0.3-0.4-1.3-0.8-1.4-0.7c-2.6,3-5.2,6.1-7.6,9.3
	c-0.3,0.3,0.1,1.7,0.4,1.7C69,434.9,74.5,435.7,79.5,436"/>
<path class="st0" d="M719.8,910.8c5.6-4.2,11.3-3,17.1-1.5c9.9,2.7,12,10.4,12,19.2c0,6.8-0.7,13.7-0.8,20.5
	c-0.1,3.9,0.7,7.7,0.9,11.6c0,1.2-0.1,3.2-0.8,3.6c-7,3.9-11.8,11.4-20.2,12.7c-3.1,0.4-6.8,0.1-9.6-1.2c-6.2-3.1-12.6-4.5-19.5-4.7
	c-5.4-0.2-10.8-0.4-16.1-1.2c-1.7-0.2-3.9-2-4.6-3.6c-0.4-1.2,0.9-3.8,2.1-4.9c5.2-4.2,11.1-6.9,17.9-7.3c8.6-0.6,17.2-1,25.7-2.2
	c3-0.4,6-2.3,8.6-4.1c1-0.7,1.5-3.6,0.9-4.5c-0.8-1-3.2-1.7-4.6-1.3c-6,1.6-11.7,3.8-17.7,5.4c-2.8,0.7-5.8,0.6-8.7,0.6
	c-0.5,0-1.3-1.5-1.3-2.3c-0.3-10.2,3.8-19,9.8-26.8C713.2,915.8,716.6,913.6,719.8,910.8"/>
<path class="st0" d="M794,591c-0.3-24-0.6-47.5-1-71c-0.3-20.2-0.6-40.4-1-60.6c-0.2-5.7-0.9-11.4-0.9-17.1c0-3.8,2-6.8,6.1-7.2
	c3.4-0.4,6.8,0,8.3,3.9c0.3,0.9,0.5,1.8,0.5,2.8c0.3,20.3,0.7,40.7,1,61c0.4,27.4,0.6,54.8,1,82.2c0.2,11.1,0.7,22.2,1,33.3
	c0.1,6.2-2.6,9.6-7.4,9.7c-4.7,0.1-7.4-3.2-7.6-9.5C793.9,609.5,794,600.5,794,591"/>
<path class="st0" d="M853,439c2.3-5.5,6.6-4.9,10.6-3.9c4.6,1.2,4.2,5.7,4.3,9.1c0.2,14.5,0,29,0.1,43.5c0.2,21,0.7,42.1,1,63.2
	c0.3,19.7,0.7,39.5,1,59.2c0,3.6,0,7.3,0,10.9c-0.1,5.4-4,6.3-8,5.9c-4-0.5-5.9-3.7-6-7.5c-0.1-7.4,0.1-14.7,0-22
	c-0.3-19.8-0.7-39.5-1-59.3c-0.3-18.2-0.6-36.3-1-54.5C853.7,468.9,853.3,454.2,853,439"/>
<path class="st0" d="M829,587c0,11.5,0,22.5,0,33.5c0,4.8-2.4,7.5-6.5,7.5c-4,0-7.4-3.3-7.5-7.6c-0.4-13.9-0.8-27.7-1-41.6
	c-0.1-11.4,0.1-22.9,0-34.4c-0.3-20.6-0.6-41.1-1-61.7c-0.3-13.5-0.6-27-1-40.5c-0.1-3.6,0.3-6.7,4.8-7.2c6.3-0.7,8.1,0.3,9.2,5.7
	c0.5,2.5,0.9,5.1,1,7.6c0,15.8-0.1,31.6,0,47.5c0.2,20.5,0.6,41,1,61.5C828.2,567,828.7,576.8,829,587"/>
<path class="st0" d="M833.8,436.8c3.5-0.7,6.9-2,9.9-1.3c2.9,0.7,3.4,4.2,3.4,7.4c0.2,27.5,0.5,55,0.9,82.5
	c0.3,19.3,0.6,38.5,1,57.7c0.3,11.9,0.7,23.7,1,35.6c0.1,3.9-0.3,7.7-5.2,8.3c-6.1,0.6-7.7-0.7-8.8-6.8c-0.5-2.8-0.9-5.7-1-8.5
	c-0.4-33.6-0.6-67.2-1-100.7c-0.3-19.7-0.7-39.4-1-59C833,447,833.3,442,833.8,436.8"/>
<path class="st0" d="M231,859c18.1-5.2,39.4,2.9,45.8,23.8c5.9,19.5-4.9,40.9-28.4,45.3c-13.3,2.5-24.2-1.5-33.2-10.6
	c-13.1-13.3-13.2-31.6-2.4-45.9C217.4,865.4,223.8,862.1,231,859 M220,889.5c0,2.7-0.5,5.4,0.1,8c2.5,10.8,15.6,19.1,26.1,16.4
	c12.5-3.2,19.1-11.4,16.8-25.4c-1.8-11.1-17.4-18.6-26.4-15.7C228.2,875.5,222.8,880.3,220,889.5"/>
<path class="st0" d="M89.8,656.8c8.2-4,11.7-1.7,14.2,7.8c1,3.7,1.8,7.6,3.1,11.2c0.8,2.3,2,4.3,5.4,2.4c2.6-1.5,5.7-2.3,8.7-2.9
	c4.6-0.7,4.3-3.1,3.1-6.5c-1.9-5.7-3.6-11.5-5.3-17.3c-1.4-5.2,1.2-10.4,5.5-11.5c3.1-0.8,8.3,3.4,9.5,7.7c2.4,8.9,4.7,17.8,7,26.6
	c2.2,8.5,1.3,10.1-7,12.7c-19.8,6.2-39.5,12.5-59.2,18.7c-4.5,1.4-9.7-1.2-10.8-5.4c-3-11.6-6-23.2-9-34.8c-0.9-3.7,1.1-7.8,4.2-8.5
	c4.8-1.2,8.5,0.4,9.8,4.7c2.1,7.3,4.3,14.6,5.9,22c1.1,5.3,4.3,5,8,3.9c11.7-3.6,11.5-3.6,7.9-15.4
	C89.3,667.3,85.8,662.4,89.8,656.8"/>
<path class="st0" d="M689.8,76.8c6.7-4.5,13.7-7.2,21.5-6.7c24.1,1.4,40.7,23.6,31.2,47.6c-4.8,12.1-17.2,20-30.1,20.4
	c-15.2,0.5-26-6.1-33.6-18.8c-5.2-8.5-4.2-26.2,2.3-33.8C683.7,82.4,686.7,79.8,689.8,76.8 M694.5,92c-3.3,4.8-5.8,10-4,15.9
	c2.9,9.6,9.4,16.3,22.4,15.2c13.7-1.3,20.4-14.1,16.2-25.2C723.9,84.2,707.1,80.1,694.5,92"/>
<path class="st0" d="M161,293c-11.7-2.7-20.1-8.9-25.1-19.6c-8.6-18.5,0.6-39.9,19.6-46.4c13.9-4.8,26.5-2.2,36.5,7.8
	c15.4,15.6,13.5,40-5.5,53.1C179,293.1,170.4,294.2,161,293 M187,263.5c0.6-6.9-0.3-13.6-5.7-18.5c-6.9-6.4-17.2-7.2-25.5-1.9
	c-5.6,3.6-10.7,11.2-7.8,21.6c2.4,8.4,13.6,16.7,24,13.5C179.4,275.8,184,271.3,187,263.5"/>
<path class="st0" d="M123,758c11.3-2.8,22.6-5.7,34-8.4c4.7-1.1,9.6-1.8,14.4-2.6c4.6-0.7,6.9,2.7,7.4,6.1c0.4,3.6-1.8,6.9-6,7.9
	c-17.2,4.3-34.3,8.7-51.5,13c-2.6,0.6-5.2,1.9-7.7,1.8c-3.2-0.2-7.3-0.5-9.2-2.5c-1.5-1.6-1-5.9-0.2-8.8c1-3.9,3.1-7.7,4.8-11.4
	c2.2-4.8,1.5-6.5-3.4-8.1c-5.4-1.9-10.8-3.6-16-6c-3.3-1.7-4-7.2-1.3-9.7c6.7-6.2,13.5-12.3,20.4-18.3c4.7-4.1,9.6-8,14.6-11.7
	c3.3-2.5,6.6-2.2,9.5,1c3,3.3,3.1,6.6-0.2,9.6c-7.1,6.1-14.3,12.1-21.5,18.1c-0.7,0.7-1.4,1.5-2.1,2.2c1,0.6,2,1.4,3.1,1.8
	c4.1,1.4,8.4,2.3,12.3,4.1c5.4,2.4,6.1,5.1,3.6,10.5c-1.7,3.6-3.3,7.3-5.3,11.2c-0.2,0.5-0.2,0.8-0.3,1.1
	C122.6,758.6,122.8,758.3,123,758"/>
<path class="st0" d="M407.3,115.3c5-0.8,8.4,1.2,9.6,5.9c1.2,4.1-1.3,6.9-7.2,8.8c-10,3.3-19.9,6.5-29.9,9.7
	c-3.5,1.1-8.3-2.2-9.8-6.5c-6.1-18-12.4-35.9-18.2-54c-2.1-6.8-1.6-9.9,6-12.6c10.4-3.5,20.7-7.3,31-10.9c6.6-2.3,12.5,1.5,10.9,7.4
	c-0.7,2.7-3.9,5.5-6.7,6.7c-6.7,2.9-14,4.8-21,7.2c-2.7,1-5,2-3.5,6.2c3.6,10.1,2.5,10.9,14.5,6.3c3.8-1.4,7.7-2.7,11.6-3.4
	c3.4-0.6,5.8,1.8,6.3,5c0.5,3.1,0.6,6.5-3.4,8c-5.7,2.1-11.1,4.6-16.7,6.9c-0.7,0.3-1.9,0.4-2.1,0.9c-1.8,5.1,1,9.4,3.4,13.4
	c0.8,1.2,4.1,1.6,5.9,1.1C394.4,119.7,400.7,117.5,407.3,115.3"/>
<path class="st0" d="M316,949c-4.3,7.5-8.6,14.6-13,21.6c-3.4,5.3-7.2,6-12.4,2.5c-7.5-5.1-15.1-10.1-22.7-15.1
	c-5.8-3.8-7.4-8.2-4.2-12.1c2.4-3.1,5.3-4.2,8.9-1.9c5.2,3.3,10.6,6.5,15.8,10c4.8,3.1,5.7,3,8.6-2c4.8-8.6,4.8-8.6-3.5-14
	c-2.5-1.7-5.1-3.4-7.3-5.4c-3.6-3.3-4.4-7.4-2.1-10.2c2.2-2.7,8.1-3.5,11.5-1.3c3.3,2.2,6.4,4.6,9.7,6.7c1.2,0.7,2.8,1.3,4,1.1
	c2.4-0.5,8.5-11.3,7.6-13.6c-0.5-1.3-1.8-2.5-3.1-3.2c-5.9-3.5-11.9-6.7-17.8-10.1c-4-2.3-5-5.7-3-9.7c2.2-4.3,5.4-5.6,9.8-3.3
	c9.7,5.3,19.3,10.5,28.8,16.2c5.7,3.4,5.9,7.2,1.4,14.8C327.4,929.6,321.7,939,316,949"/>
<path class="st0" d="M786.8,371.3c-6-1.5-14.1-10.4-14.8-16c-0.4-3.1,0.9-3.4,3.5-3.4c22.9,0.5,45.7,0.9,68.6,1
	c7.3,0.1,14.7-0.8,22-0.9c11.6-0.1,23.2,0,34.7,0.1c0.7,0,2.2,1.8,2.1,1.9c-4.1,6.6-6.4,14.8-15,17.6c-0.7,0.2-1.5,0.4-2.3,0.4
	c-29.2,0.3-58.5,0.7-87.7,0.9C794.3,373,790.6,372,786.8,371.3"/>
<path class="st0" d="M605,53c-3.7-0.7-6.9-1.7-10.2-1.8c-1.2,0-2.5,2.2-3.8,3.4c-0.1,0.1,0,0.4,0,0.5c-0.9,9.8,0.1,11,10.1,10.9
	c4.3-0.1,8.6,0,11.2,4c1.2,1.7,2.2,4.6,1.5,6.2c-1,2-3.6,4.3-5.7,4.6c-4,0.5-8.1-0.5-12.1-0.8c-5.1-0.4-6.8,0.6-7,5.4
	c-0.6,10.7-0.7,10.6,10,11.6c4.2,0.5,8.4,1.2,12.6,2c4.1,0.8,6.9,4.5,6.4,8.3c-0.6,4.5-3.7,6.1-7.8,5.7c-10.8-1.3-21.6-2.4-32.3-4.2
	c-1.9-0.3-4.7-3.6-4.7-5.5c0.1-8.2,1-16.4,1.7-24.7c0.3-4.5,0.8-9,1.1-13.5c0.4-6.4,0.8-12.7,1-19.1c0.2-8.6,4.2-11.6,12.8-10.1
	c8.3,1.4,16.8,2,25.2,3.1c3.2,0.5,6.6,1,9.6,2.2c3.9,1.7,5,4.8,3.5,9.1c-1.5,4.4-5.1,4.7-8.4,4.6C614.9,54.7,610.2,53.7,605,53"/>
<path class="st0" d="M104.8,484.3c7.3,14,5,27-5,38.2C89.6,534,69.4,535.6,57.4,526c-9.4-7.4-13.6-16.9-13.3-28.4
	c0.2-11.5,9.9-25,20.5-28.5c12.7-4.3,24.5-2.5,34.2,7.3C101,478.6,102.6,481.5,104.8,484.3 M88,513.5c4.8-5.5,7.7-11.5,5-19.1
	c-2.2-6.5-8.2-12.7-17-12.5c-6.7,0.1-14.6,5.4-16.7,13.4c-1.5,5.6,0.2,14.5,7.4,19.1C74.1,519.2,80.6,518.3,88,513.5"/>
<path class="st0" d="M483,106c-6.4,4.1-8.7,3.7-14.1-1.5c-3.8-3.7-7.6-7.2-11.6-10.6c-2.9-2.6-5.4-2.8-7.4,1.4
	c-3.4,7.3-7.2,14.4-10.9,21.5c-2.4,4.4-5.7,5.6-10.1,3.6c-4-1.9-5.1-4.9-2.9-8.9c0.6-1.2,0.5-2.8,1.1-4c3.8-7.3,7.7-14.5,11.6-21.7
	c2.3-4.3,1.5-7-2.7-10.4c-5.8-4.6-11.6-9.3-17.1-14.1c-3.5-3-4-8.4-1.5-11.2c2.9-3.1,7.9-2.9,11.6,0.4c5,4.4,10.1,8.6,15.1,13.1
	c2.6,2.4,4.3,2,5.8-1c3.4-6.8,6.6-13.6,10.1-20.3c2.6-5,6.2-6.3,10.5-4.4c4,1.9,5.2,4.9,3.4,8.7c-3.2,7.1-6.8,14.1-10.2,21.2
	c-1,2.1-2.2,4.2-2.6,6.4c-1.3,6.1,4.7,7.5,7.5,10.7c4.2,4.5,9.7,7.8,13.7,12.3C483.8,98.9,482.8,102.7,483,106"/>
<path class="st0" d="M212.3,833.3c3.1-2.9,6.1-5.4,9-8.1c3.2-3,8.5-3.6,11.3-1.1c2.5,2.2,2.2,8.5-0.9,11.6
	c-3.3,3.3-6.9,6.4-10.5,9.5c-5.8,5.2-11.6,10.4-17.5,15.6c-4.9,4.3-9.9,8.3-14.7,12.8c-3,2.8-5.8,4.7-10,2c-3.9-2.6-4.2-6.3-4-10.3
	c0.3-9,0.7-18,1-27c0.1-1.5,0.5-2.9,0.5-4.3c0-1.2,0.1-2.8-0.5-3.3c-0.7-0.5-2.3-0.2-3.3,0.2c-8.6,3.1-17.1,6.3-25.6,9.5
	c-3.4,1.3-6.3,0.9-8-2.5c-1.8-3.3-2.5-7.2,1.2-9.5c3.3-2.2,7.2-3.6,10.9-5c9.5-3.9,19.2-7.6,28.8-11.4c8.6-3.4,12.2,3.9,12,11.2
	c-0.2,5.2-0.6,10.4-1,15.6c-0.3,3.9-0.7,7.7-1,11.6c0,0.8,0.5,1.7,0.7,2.6c0.7-0.4,1.4-0.7,2-1.2
	C199.1,845.7,205.6,839.6,212.3,833.3"/>
<path class="st0" d="M761.8,111.8c2.4-3.9,4.3-7.7,7-10.9c4.3-5.2,11.2-3.6,13.1,2.8c3.3,10.9,6.2,21.8,9.1,32.8
	c1.1,4.2,1.7,4.4,5.5,1.5c6.4-4.9,12.9-9.7,19.5-14.5c3.3-2.4,8.3-2,10.5,0.5c2.5,2.9,2.3,7.3-1.3,10.2
	c-9.3,7.4-18.9,14.6-28.4,21.8c-1.7,1.2-3.2,2.7-5,3.7c-4.7,2.5-9.3,0.7-10.7-4.5c-2.6-9.3-4.7-18.7-7.1-28.1
	c-0.4-1.4-1.2-2.7-1.7-4.1c-1.1,1.1-2.3,2.1-3.1,3.3c-6.5,10.8-12.9,21.7-19.5,32.4c-2.6,4.3-7.6,5.8-10.8,3.7
	c-3.3-2.2-4.3-7.5-1.9-11.5c5.3-8.6,10.7-17,16-25.4C755.9,121,758.7,116.5,761.8,111.8"/>
<path class="st0" d="M544.8,46.8c0.9-2.5,1.1-5,2.3-6.9c2-3,4.4-6.2,8.9-4.3c4.2,1.7,6.1,5.8,4.7,10.2c-3.9,11.9-7.6,23.8-11.8,35.5
	c-2.5,7-8.8,7.9-13.4,3.5c-6.9-6.7-13-14.2-19.6-21.3c-0.6-0.7-1.5-1-2.3-1.5c-0.2,0.9-0.6,1.8-0.6,2.7c0.3,3.5,0.9,7,1,10.6
	c0.1,9.1,0,18.3,0,27.4c-0.1,3.6-0.9,6.8-5.3,7.3c-5.6,0.5-8-0.8-8.6-5.8c-0.8-7.1-0.8-14.4-1.1-21.6c-0.4-12.3-0.7-24.6-1-37
	c-0.1-3.7,1.2-6.4,4.8-7.9c3.5-1.6,6.2-0.3,8.5,2.1c8.4,8.7,16.7,17.4,25.2,26c0.2,0.2,2.2-0.5,2.4-1.1
	C540.9,58.8,542.7,52.9,544.8,46.8"/>
<path class="st0" d="M139.3,346.8c3.1,1.5,6.2,2.7,9,4.2c4.1,2.3,5.6,6.6,3.7,10c-2.3,4.2-5.9,5.3-10.6,3
	c-14.2-7.2-28.4-14.4-42.5-21.6c-4.6-2.4-8.9-5.1-13.5-7.4c-4.1-2-4.4-5.7-2.9-8.8c5.6-11.5,12.1-22.6,17.8-34.1
	c2.5-5.1,6.7-5.1,10.5-3.6c12.2,4.8,24.1,10.1,36,15.6c4.8,2.2,6.3,5.9,4.1,9.9c-2,3.7-5.1,5-9.6,3.1c-9.2-4-18.5-7.5-27.9-11
	c-1.2-0.5-3.7,0.1-4.3,1c-2.9,4.9-5.5,10-8.1,15.1c-1.4,2.7-0.8,4.4,2.2,5.9C115.2,334.1,127.1,340.3,139.3,346.8"/>
<path class="st0" d="M253,287c2,7,4.6,13.4,5.9,20c1.8,9.5-3.3,16.8-9.1,23.6c-2.1,2.5-4.5,4.8-6.8,7.2c-4.4,4.7-2.4,10.9-4,16.3
	c-0.2,0.8,0.2,1.8,0,2.5c-0.6,1.4-1.5,2.7-2.2,4.1c-0.9-1.1-1.8-2.2-2.8-3.2c-3.1-3.2-6-6.8-9.5-9.4c-4.5-3.3-4.9-9.1-2-12.9
	c5.2-6.6,8.5-13.8,9.5-22c0.1-1.6-0.2-3.3-0.2-4.9c-1.5,0.3-3,0.4-4.4,0.9c-2.8,0.8-5.5,2.3-8.4,2.6c-1.4,0.1-3.8-1.5-4.4-2.9
	c-3.2-7.1-0.5-12.4,7.1-14.9c4.1-1.4,8.3-2.5,12.3-4.1c1.3-0.6,2.6-2.4,2.9-3.9c1.5-7.9,4.5-14.6,12.6-18.2c2.9-1.3,5.6-4.3,4.5-8.5
	c-0.1-0.6-0.2-1.4,0-2c0.6-1.8,1.4-3.5,2.1-5.3c0.9,1.7,2.2,3.2,2.9,5c2.6,7-1.2,12.8-4.1,18.4C252.9,279.1,252.1,282.6,253,287"/>
<path class="st0" d="M690.3,153.8c6.8,5.5,13.4,10.8,20.1,16.1c1.2,0.9,2.7,1.4,4.1,2.1c-0.4-1.7-0.3-3.7-1.2-5.1
	c-2.3-3.7-5.2-7.1-7.6-10.8c-0.6-1-0.2-2.7-0.3-4c1.1-0.1,2.1-0.1,3.2-0.1c13.5,0.4,20.2,9.1,24.3,20.5c2.8,7.7,6.8,15.3,5,23.9
	c-0.7,3.5-1.8,6.9-3.1,10.2c-0.6,1.3-2.1,3-3.1-0.3c-2.7-8.9-10.6-10.5-18.1-12.2c-5.4-1.2-11.2-0.7-16.5-2.3
	c-6.7-1.9-13.2-5.5-16.3-11.8c-3.6-7.2-5.1-15.4-2.7-23.5C679.2,152.7,683.9,151.8,690.3,153.8"/>
<path class="st0" d="M210,243c-4.4-14.5-8.7-28.6-13.1-42.5c-1.7-5.6-4.1-11.1-5.4-16.7c-0.6-2.4-0.1-5.6,1.1-7.7
	c1.7-2.8,4.4-3.6,8.2-2.2c15.8,5.3,31.8,10.1,47.7,15.2c4,1.2,6.5,6.1,5.4,9.5c-1.3,4.1-4.9,5.9-9.8,4.3
	c-10.7-3.3-21.4-6.9-32.1-10.4c-0.9-0.2-1.8-0.2-2.7-0.3c0.2,0.8,0.4,1.7,0.7,2.5c5.1,15.7,10.2,31.4,15.2,47.1
	c0.7,2.2,1.3,4.8,0.6,6.8c-0.7,2.1-2.6,4.5-4.6,5.2c-3.3,1.3-6.4-0.3-8.2-3.6C211.9,248.1,211,245.8,210,243"/>
<path class="st0" d="M287,145c2,10.5,4.6,20.4,5.8,30.5c1,8.2-4.3,11.3-12.1,7.7c-8.3-3.8-16.5-7.8-24.7-11.7
	c-7.7-3.7-15.6-7.3-23.2-11.3c-3.5-1.8-4.9-5.1-2.6-8.8c1.9-3,4.3-5.5,8.6-3.4c11.1,5.3,22.3,10.5,33.4,15.7
	c1.1,0.5,2.3,0.8,3.4,1.2c-0.2-1.2-0.4-2.3-0.6-3.5c-3-13.9-6.1-27.8-9-41.7c-0.9-4.5,2.2-9,6.4-9.7c3.7-0.6,7.5,2.8,8.6,8
	C282.9,126.9,285,135.7,287,145"/>
<path class="st0" d="M44,609c-0.7-5.6-1.8-10.6-1.7-15.7c0-1.4,3-3.6,5-4.1c3.6-0.9,7.4-0.3,8.6,4.1c1.4,4.8,2.4,9.8,3,14.7
	c0.4,3.3,2.4,3.4,4.5,2.9c11-2.2,22-4.6,33.1-6.9c5.7-1.1,11.5-2.1,17.2-3c3.8-0.5,7.7,2.6,8.3,6.4c0.6,3.6-2.2,7.8-6,8.6
	c-7.3,1.4-14.6,2.6-21.8,4c-9.7,1.9-19.4,3.9-29,6.2c-1.3,0.3-2.9,2.9-2.9,4.5c0.2,4.9,1.1,9.8,1.7,14.7c0.6,4.2-2.1,5.8-5.5,6.5
	c-4.2,1-7.6-1.2-8.3-4.9C47.7,634.6,46,622,44,609"/>
<path class="st0" d="M267.8,331.8c3.2-3.4,6.6-6.2,9.1-9.6c2.1-3,3.8-6.6,4.4-10.1c1.7-10.5,7.7-16.3,17.7-18.7
	c3.4-0.9,6.5-2.9,9.7-4.4c2.8-1.4,4.8-1.9,4.4,2.6c-0.6,5.4-3,10.1-7.3,12.8c-7.1,4.5-8.8,11.3-9.7,18.5c-0.6,5.4-2.2,9.5-7,12.6
	c-5.6,3.6-10.7,8-12.2,15.3c-0.8,4-4.6,5.9-8.1,6.7c-8.2,1.8-10.9,7.8-12.9,14.9c-0.5,1.7-2.2,3.7-3.8,4.5c-2.9,1.2-3.5-1.6-4.3-3.6
	c-5.1-13-0.8-30.4,12.4-37.3C262.6,334.7,265.1,333.3,267.8,331.8"/>
<path class="st0" d="M599,457c0-3.1-0.2-5.6,0-8.2c1.1-10.8-4-18.4-12.9-23.8c-4.5-2.7-6.3-6.5-6.1-11.6c0.1-3.4,0.2-6.8-0.1-10.1
	c-0.2-3.4,1.4-4.4,3.9-2.9c9.8,5.9,19.1,12.4,23.4,23.9c1,2.7,4.2,4.4,6.3,6.7c1.6,1.8,4.1,3.6,4.3,5.6c0.6,7.3,2.1,14.1,5.8,20.6
	c3.9,7.1,3.7,10.4-4.9,14.9c-2.4,1.3-4.6,4-5.5,6.5c-1.9,4.7-2.8,9.9-4.3,14.7c-0.3,1.1-1.7,1.8-2.6,2.7c-0.8-0.9-2-1.6-2.2-2.6
	c-1.5-6.9-3-13.9-4-20.8C599.3,467.6,599.3,462.5,599,457"/>
<path class="st0" d="M716,203c8.9-1.3,12.5,5.1,15.8,10.6c4.7,7.6,4.1,15.7-0.8,23.5c-2.3,3.7-3.9,3.8-6.9,0.5
	c-3.7-4.2-7.7-8.1-11.3-12.3c-4.6-5.6-11.2-5.4-17.4-6.2c-12.8-1.7-23.7-6.4-31.2-17.4c-3.3-4.7-2.9-10.2-1.9-15
	c1.1-5.3,4.3-10.2,6.8-15.1c0.4-0.9,2.1-1.1,3.3-1.6c0.2,1,0.5,2.1,0.6,3.1c0.4,5.8-1.1,11.7,1.9,17.2c3.4,6.3,9,8.7,15.4,9.6
	c7.8,1.1,15.7,1.4,23.6,2.1C714.5,202.1,715,202.7,716,203"/>
<path class="st0" d="M402,873c-9.1,2.5-17.8,4.6-26.8,3.9c-1.1-0.1-3-2-3.1-3.1c-0.2-9.5-0.2-19,0.1-28.5c0-1.1,2.2-3.2,3.3-3.1
	c11.8,0.4,23.5,1.3,35.2,1.7c6.8,0.3,13.6,0.1,20.5,0.1c5.2,0,5.8,1.5,3.9,6.6c-2.7,7.3-8.5,11.3-14.9,14.6
	C414.5,868.1,408.4,870.4,402,873"/>
<path class="st0" d="M299.8,111.8c-5.5,2.1-8.6,1.2-10.8-2.9c-2.1-3.9-1.2-7.1,3.7-10c7.9-4.6,16-8.7,24.1-12.9
	c5.5-2.8,11.3-5.1,16.6-8.1c4.3-2.4,6.6,0.8,7.8,3.2c1,2,0.5,6.2-1,7.7c-2.7,2.9-6.6,4.6-10.1,6.6c-4.8,2.6-4.9,3.9-2.3,9
	c7,13.4,13.7,26.9,20.5,40.4c2,4.1,0.6,8.5-2.8,10.2c-4.4,2.2-7.8,1-10.5-4.2c-6.6-12.6-13-25.2-19.5-37.8c-3.7-7.2-4.2-7.4-11-4
	C303,109.8,301.5,110.7,299.8,111.8"/>
<path class="st0" d="M228.8,373.3c5.1,5.1,10.2,10,15,15.1c3.7,3.8,2.9,9.1-1.6,10.8c-1.4,0.5-3.4,0.3-4.7-0.3
	c-3.8-1.8-7.5-3.7-11-6c-6.6-4.4-11.4-1-16.1,3.2c-3,2.8-5.7,6-8.8,8.7c-3.7,3.4-9.7,2.9-13.6-0.2c-5.2-4.2-7.4-9.6-7-16.1
	c0.5-6.3-1.9-10.6-8-13.1c-3-1.3-7-3.4-5.6-7.2c0.6-1.8,5.1-2.8,8-3.1c5.3-0.4,10.6-0.2,15.9-0.1c4.6,0.1,6.3,2.7,5.2,7.1
	c-1,3.6-1.9,7.3-2.4,11c-0.2,1.2,0.8,3.6,1.4,3.7c1.9,0.2,4.6,0.2,5.9-0.9c2.6-2.3,4.6-5.3,6.6-8.2
	C214.4,368.5,218.8,366.2,228.8,373.3"/>
<path class="st0" d="M782,641c0-6.5,1.6-8,7.5-8c37.4,0,74.7,0.1,112-0.1c4-0.1,6.5,1.8,8.1,4.5c0.8,1.4,0.2,4.6-0.9,6.2
	c-2.1,3-5.1,4.8-9.2,2.6c-1-0.6-2.6-0.2-3.9-0.2c-32,0-64,0-96,0c-3.7,0.1-7.4,1-11,0.9C785.3,646.8,782.2,645.7,782,641"/>
<path class="st0" d="M43.3,564.8c-1.5-1.5-2.7-2.7-3.8-3.8c-3.1-3.1-3.3-6.3-0.4-9.6c2.9-3.3,6.2-3.5,9.5-1.2
	c4,2.7,7.8,5.5,11.5,8.5c2.3,1.8,3.9,2.3,5.6-0.8c1.8-3.4,4.2-6.6,6.3-9.8c2.9-4.4,7.7-5.6,11.9-2.7c11.4,8,22.7,16,34,24
	c3.2,2.3,4.2,8,2.1,10.8c-2.3,3.2-7.3,3.8-11,1.2c-8.1-5.6-16.1-11.2-24-17c-2.8-2-4.5-2.5-6.3,1.2c-1.6,3.4-4.1,6.3-6.2,9.4
	c-3.2,4.7-8.6,5.4-13,2C54.2,572.9,48.8,569,43.3,564.8"/>
<path class="st0" d="M246,668c-0.3-2.9-1.1-5.3-0.8-7.6c0.2-1.5,1.6-3.8,2.9-4.2c1.5-0.4,3.9,0.5,5.1,1.7c2.5,2.3,3.9,13.8,2.3,16.1
	c-2.5,3.7-10,6.2-15.7,4.4c-10-3.1-19.6,1.7-22.4,10.7c-1.3,4.2,2.6,14.5,6.6,17.4c4.5,3.3,11.5,3.5,15.6-0.7
	c2.3-2.2,3.5-5.9,4.3-9.2c1.1-4.8,3.2-8.8,7.8-10.5c4.8-1.7,9,0.4,12.3,4.3c2.1,2.7,4.9,5,6.5,7.9c1,1.6,1.1,4.7,0.1,6.2
	c-0.7,1.1-4.3,1.4-5.8,0.5c-2.6-1.5-4.5-4.2-6.7-6.4c-1-1.1-1.9-2.2-2.9-3.3c-0.7,1.5-1.6,2.9-2.1,4.5c-0.6,1.8-0.6,3.8-1.1,5.6
	c-2.4,7.8-8.1,11.3-16,12.7c-16.7,2.9-25.8-8.6-28-21.7c-2.6-15.9,8.1-28.4,24.1-28.4C236.7,668,241.4,668.3,246,668"/>
<path class="st0" d="M903.3,663.3c-2.8,0.4-5.3,0.6-7.8,0.7c-1.3,0.1-2.6,0-3.9,0c-26,0-52-0.1-77.9,0c-4.9,0.1-9.7,0.8-14.6,1
	c-5.1,0.1-10.2-3.8-10.1-7.6c0.1-3.6,4.2-6.4,9.7-6.4c32.9,0,65.9,0,98.8,0c3,0,5.8-0.3,7.6,3.4C906.9,658,905.7,660.5,903.3,663.3"
	/>
<path class="st0" d="M859,722c10,0,19.5,0.1,29,0c6.5-0.2,13-0.8,19.5-1c5-0.1,7.5,2.1,7.5,6.1c0,4.6-1.7,5.9-7.5,5.9
	c-38.5,0-76.9,0-115.4,0c-4,0-7.6-0.5-8.1-5.4c-0.3-4.2,2-6.6,6.5-6.6C813.2,721.3,835.8,721.7,859,722"/>
<path class="st0" d="M577.8,528.8c-4.1,5.3-7.6,10.6-11.7,15.4c-3.6,4.3-7.6,8.3-11.9,11.9c-1.6,1.4-4.6,2-6.6,1.6
	c-1.2-0.2-2.1-3.2-2.5-5.1c-1.8-7.3,6.9-16.9,12.9-18.6c0.6-0.2,1.4-0.1,1.9-0.4c1.7-1.2,3.4-2.4,5.1-3.7c-1.6-0.6-3.4-1.1-4.9-2
	c-1.5-0.8-4-2.4-3.8-3.3c0.3-1.9,1.6-4.6,3.2-5.3c3.6-1.5,7.9-1.6,11.7-3.1c6.4-2.6,12.7-5.5,18.8-8.8c8.5-4.5,17.6,1.5,16,9.7
	c-1.4,7.4-2.4,14.9-4.2,22.2c-0.4,1.6-3.4,3.5-5.1,3.4c-2-0.1-4.4-1.8-5.6-3.6c-1.3-1.9-1.5-4.6-2.1-7
	C587.4,525.9,582.4,524.3,577.8,528.8"/>
<path class="st0" d="M964,549c-3.3,2.6-6.6,4.9-8.9,7.9c-2.8,3.6-4.8,7.9-7.4,11.8c-2.5,3.8-6.4,4.2-9.5,0.9
	c-6.1-6.4-11.9-13-17.7-19.7c-2.2-2.5-2.1-5.5,0.2-8.1c5.3-6,10.5-12,15.9-17.8c3.8-4.1,5.9-4.1,9.6-0.2c3.1,3.3,5.8,7.2,8.8,10.7
	c2.4,2.8,4.8,5.1,9.2,4.6c4.6-0.5,9.3-0.3,13.9,0c1.7,0.1,4.3,1.3,4.7,2.5c0.7,2.5,0.7,5.9-3.3,6.3C974.6,548.5,969.5,548.7,964,549
	 M939,555.5c1.5,1.1,2.7,4.6,5,0.7c1.2-2,2.6-3.8,4-5.7c-2.6-0.2-5.2-0.4-7.8-0.5c-0.8,0-1.6-0.1-2.5,0c-1.2,0.1-2.5,0.3-3.7,0.5
	c0.8,1.2,1.6,2.4,2.5,3.4C937,554.5,937.8,554.7,939,555.5 M936.5,541c3.2-0.2,6.4-0.3,9.6-0.7c0.5,0,0.9-0.8,1.4-1.3
	c-2.2-1.3-4.7-4-6.6-3.6C938.8,535.8,937.3,539,936.5,541"/>
<path class="st0" d="M294.3,242.3c3.3-2,6.4-3.7,9.6-5.2c1.2-0.6,2.6-0.5,4-0.7c-0.2,1.5,0.1,3.3-0.5,4.6c-1.9,3.6-4.3,6.9-6.3,10.4
	c-2.9,5.1-5.5,10.5-8.6,15.4c-1.3,2.1-3.5,4.1-5.7,5.1c-6.6,2.8-9.8,7.6-7.7,14.6c2.6,8.6-1.5,15.7-4.3,23c-1.5,4-4.5,7.5-7,11.1
	c-0.5,0.7-1.9,0.9-2.8,1.4c-0.4-0.9-1-1.9-0.9-2.8c0.9-8.6,2-17.2,2.8-25.8c0.2-2.6-0.8-5.4-0.9-8.1c-0.1-6.7-0.4-13.4,0.2-20.1
	c0.3-2.6,2.5-5.8,4.7-7.4C278.4,252.4,286.3,247.6,294.3,242.3"/>
<path class="st0" d="M630.3,452.8c-3.7-7.1-7.9-13.7-5.3-21.9c2.5-7.9,9.5-11.1,15.9-14.7c1.1-0.7,3.8,0.4,5.2,1.5
	c8.7,6.9,13.4,16.3,13.7,27.1c0.3,9.7-4,17.7-13.3,22.3c-3,1.5-5.3,1.3-7.2-1.3C636.3,461.6,633.4,457.3,630.3,452.8"/>
<path class="st0" d="M514,371c5.6-1,10.6-2.2,15.8-2.9c0.9-0.1,2.7,1.4,3.2,2.5c2.5,6.1,4.9,12.3,6.9,18.6c1.5,4.6-2.6,5.6-5.6,6.8
	c-7.1,2.6-14.4,4.6-21.3,7.7c-7,3-8.6,3.3-14.4-1.6c-2.5-2.1-4.9-4.2-7.3-6.4c-5.1-4.4-4.3-10.6,2.4-15.8
	C499.5,375.3,506.2,372.4,514,371 M509.5,388c-0.5,0-1-0.1-1.5,0c-2.5,0.7-3.9,2.3-2.8,4.7c0.3,0.9,2.8,1.6,3.8,1.2
	c4-1.5,7.9-3.4,11.8-5.2c-0.8-0.7,3.2-3-0.8-2.7C516.6,386.4,513.3,387,509.5,388"/>
<path class="st0" d="M288.3,740.8c1.7,5.9,3,11.7,4.8,17.3c0.8,2.5,2.8,3.5,5.9,2.6c2.9-1,6.2-1.7,9.3-1.5c1.6,0.1,3.9,2,4.4,3.6
	c0.4,1.1-1.3,4-2.7,4.5c-6.6,2.2-13.4,4-20.1,5.7c-9,2.1-18,4.1-27.1,5.9c-1.9,0.4-5.3,0.2-6-1c-1-1.7-1.1-4.9-0.2-6.8
	c6.3-13.4,12.9-26.7,19.4-40c1.2-2.7,3.3-3.9,5.8-3c1.6,0.6,3.4,2.2,4.1,3.8C287,734.6,287.3,737.6,288.3,740.8 M282,753.5
	c-0.3-1.7-0.6-3.4-1-5.1c-0.3-0.8-0.9-1.6-1.4-2.4c-0.7,0.7-1.6,1.2-2,2c-2.7,5.9-5.2,11.8-7.8,17.7c-0.3,0.7-0.4,1.4-0.5,2.1
	c0.6,0,1.3,0.3,1.8,0.2c3.5-1,7-1.7,10.2-3.1c1.3-0.6,2.5-2.8,2.5-4.2C283.8,758.6,282.7,756.6,282,753.5"/>
<path class="st0" d="M834,903c1.2-0.3,1.9-1,2.6-1c9.8,0.3,19.7,0.6,29.6,1c8.3,0.3,8.2,7.5,5.5,12.7c-3.6,7-10.6,10.2-17.4,13.2
	c-7.1,3.1-14.8,5-22.3,7.6c-2.6,0.9-4.1,1.2-4.1-2.6c0-8.1-0.6-16.3-0.9-24.5C826.9,903.3,826,902.8,834,903"/>
<path class="st0" d="M721,521c-7.9-6.1-11.4-13.8-11.1-23.6c0.3-9.6,8.8-21.1,19.5-22.5c13-1.6,21.4,5.3,25.5,17
	c3.6,10.4-1.5,23.8-10.4,29.1C736.9,525.5,729.2,525.4,721,521 M722,490.5c-0.7,3.7-2,7.4-1.8,11.1c0.1,5.1,2.5,9.6,7.6,11.6
	c4.3,1.7,8.8,1.6,12.7-1.3c7.3-5.2,6.8-21.3-1-25.7C734.9,483.6,728.4,482.7,722,490.5"/>
<path class="st0" d="M783,339c40,0,79.4,0,118.9,0c1,0,2-0.2,3,0c1,0.3,1.9,0.9,2.9,1.3c-0.7,0.8-1.2,2.1-2.1,2.4
	c-4,1.3-8,2.7-12.2,3.2c-6.8,0.7-13.7,1-20.5,1.1c-24.9,0.4-49.8,0.9-74.7,0.8c-7.9,0-15.8-1.7-23.7-2.9c-2.1-0.3-4.1-1.6-5.8-2.8
	c-0.8-0.5-1-2-1.4-3c1-0.4,2-1.1,3-1C774.5,338.2,778.5,338.7,783,339"/>
<path class="st0" d="M559.3,451.8c2.4,6.9-3.1,10.5-5.9,15.1c-0.4,0.7-2,1.1-3,1c-6.2-0.4-12.5-1.1-18.7-1.7
	c-0.6-0.1-1.3-0.1-1.9-0.2c-9.1-0.7-9.1-0.7-11.6-9.3c-2.2-7.4-0.7-12.2,5-16.4c7.2-5.2,15.3-6,23.7-5.1c2.1,0.2,4.4,2.2,5.7,4.1
	C555.1,443.1,556.9,447.4,559.3,451.8"/>
<path class="st0" d="M641.8,122.3c-0.4-4.9-1.3-9.7-0.3-14.1c3.8-17.4,8.2-34.8,12.6-52.1c0.8-3.2,1.3-7.5,5.9-8
	c2.8-0.4,6.6-1,7.8,2.4c1,3.2,1.4,7.1,0.7,10.3c-3.6,16.1-7.6,32.1-11.5,48.1c-0.9,3.6-1.9,7.2-3.1,10.7
	C652.1,124.5,647,125.7,641.8,122.3"/>
<path class="st0" d="M755.8,665.3c4.1,7.9,5.6,15.6,1.2,23.7c-7.8,14.7-27.5,17-37.6,2.7c-9.6-13.5-2.8-30.7,11.5-35
	C740.9,653.6,749,657.2,755.8,665.3 M742.5,667c-6-3-10.9-0.7-14.8,3.7c-3.3,3.9-3.8,8.4-1.5,12.3c1.9,3.3,5.3,6.6,8.8,7.7
	c4.4,1.5,9.2-0.1,12-4.7C751,679.5,751.5,674,742.5,667"/>
<path class="st0" d="M844.8,199.7c-2.1,2.7-4.5,4.5-7.4,3c-3.5-1.7-4.6-5.7-4.2-9c0.8-7.9,8-13.3,16.2-13.8
	c15-0.8,25.2,5.8,31.9,18.9c3.4,6.7,5.2,7.1,11.7,3.7c3.2-1.7,6-0.3,5.9,3.2c-0.1,4.3,1.5,8.9-3.2,12.2c-3.5,2.6-6.9,2.9-10.5,0.7
	c-4-2.4-8.1-4.8-11.7-7.8c-2-1.6-3.4-4.2-4.4-6.6c-2.7-6.3-7.9-9.6-14-10.9c-2.3-0.6-5.4,1.8-7.9,3.2
	C846.2,197,845.7,198.5,844.8,199.7"/>
<path class="st0" d="M566,489c-1-6.2-2.2-12-2.9-17.7c-0.4-3.1,4.6-6.9,8.3-7.3c4.9-0.6,9.8-1.5,14.7-1.9c3.2-0.4,5.7-0.3,7.1,4.3
	c4.2,14.2,1.6,26.4-9.3,36c-6.8,5.9-9.9,5.4-14.3-2.4C567.8,496.8,567.2,493,566,489"/>
<path class="st0" d="M951,419c2.9,4.4,6.3,8.2,8.7,12.4c2.1,3.7,5.2,3.5,8.5,3.6c2,0.1,4.1,0.2,6.1,0c3.9-0.4,4.4,2.3,3.5,4.6
	c-0.6,1.8-2.8,4.1-4.5,4.2c-11.8,0.7-23.6,0.8-35.5,1.2c-3.5,0.2-7,0.9-10.6,0.9c-6.3,0.1-8.8-3.7-5.5-9
	c5.1-8.2,10.5-16.4,16.2-24.2c3.1-4.1,6.6-3.6,9.3,0.9C948.2,415.4,949.7,416.9,951,419 M935.5,436c4.6-0.3,9.3-0.7,13.9-1
	c0.5,0,0.9-0.2,1.4-0.3c-0.3-0.5-0.6-1-1-1.4c-1.9-2.3-3.8-4.7-5.8-7c-0.6-0.6-2.3-1.3-2.4-1.2C939.2,428.7,936.8,432.3,935.5,436"
	/>
<path class="st0" d="M536,408c3.2,7,6.4,13.5,9.5,20.1c0.2,0.4-0.4,1.8-0.6,1.8c-11.1-0.3-20.8,3.9-30.4,8.8
	c-1.1,0.6-4.3-1.1-5.3-2.6c-1.6-2.4-2.2-5.4-3.2-8.2c-3.8-11.2-2.9-12.5,7.8-19.8c5.6-3.7,12.1-6.1,18.2-9c0.4-0.2,1.8,0.3,1.9,0.8
	C534.7,402.4,535.3,404.9,536,408"/>
<path class="st0" d="M350,551c2.6-3.1,4.9-6,7.8-8.1c4.9-3.6,13.9-4.9,19.4,1.6c6,7,10.8,20.9,5.8,27.4c-3.1,4-5.8,9-11.8,9
	c-1.5,0-3.6-1.3-4.2-2.6c-2.9-6-6.9-10.6-13.3-13.4C349,562.7,347.8,557.1,350,551"/>
<path class="st0" d="M931,620c-7.1-0.4-9-4.3-5.7-9.9c3.8-6.2,7-12.8,10.7-19c3.2-5.3,5.9-5.5,10.3-1.3c5.5,5.2,11,10.4,16.5,15.5
	c2.1,1.9,3.7,3,7.1,2c3.5-1.2,7.7-0.7,11.4-0.1c1.4,0.3,3.8,3.8,3.5,4.4c-1.3,2.1-3.4,4.6-5.7,5.2c-4.3,1-8.9,1-13.5,1.2
	c-9,0.4-18,0.6-27,1C936.2,619.1,933.9,619.7,931,620 M939.5,605c-0.8,1.5-1.7,2.9-2.5,4.4c1.4-0.1,2.8-0.3,4.2-0.4
	c1.5-0.1,3,0.1,4.5,0c2.4-0.1,4.8-0.3,7.2-0.4c-1.7-1.5-3.5-3-5.3-4.5c-0.4-0.3-0.7-0.7-1.1-1.1C943.7,600.5,941.3,600.2,939.5,605"
	/>
<path class="st0" d="M534.8,471.3c6.6,0.4,13.1,0.4,19.5,0.8c1.3,0.1,3.5,1.9,3.5,3.1c1,11.3,1.7,22.7,2.1,34.1
	c0.3,5.6-3.9,7.7-9.4,5.9c-6.7-2.2-9.4-6.5-9.6-13.4c-0.2-4.4-1-8.6-5.8-11.7c-3.8-2.4-6.8-6.9-8.9-11.1c-2.4-4.7-0.6-6.8,4.7-7
	C532.1,471.9,533.3,471.3,534.8,471.3"/>
<path class="st0" d="M957,507c-12.5,4.4-25.6-5.1-26.9-17.4c-1.1-9.9,2.5-18,12.1-22.1c12.4-5.3,27,1.5,28.9,16.2
	C972.5,495.1,966.4,503.7,957,507 M942,480.5c-5.8,8.8,1,16.6,6.9,17.5c5.6,0.7,10.3-2.3,12.1-7.6c1.6-4.6-0.4-10.8-4.4-13.3
	C952.9,474.7,945.8,475.9,942,480.5"/>
<path class="st0" d="M746,566c2.3,0,4.2-0.1,6,0c2.7,0.2,5.6,0.2,6,4c0.4,4.1-2.6,5.8-5.5,5.9c-11.7,0.3-23.3,0.2-35-0.1
	c-1.2,0-2.8-2.3-3.4-3.8c-0.6-1.9-0.5-4.3,2.3-4.8c2.6-0.6,5.3-1.2,8-1.1c3.3,0.1,4.9-0.8,4.7-4.4c-0.3-3.5-0.2-7-0.1-10.5
	c0.2-3.8-1.5-5.4-5.2-5.2c-3.2,0.1-6.5,0.4-6.8-4.2c-0.4-4.8,3.6-5.4,6.3-5.6c7.8-0.5,15.6-0.4,23.4,0c1.5,0.1,4.4,3.8,4,4.3
	c-1.3,2.2-3.7,5.4-5.4,5.2c-6.3-0.5-6.8,2.7-6.3,7.4c0.2,2.2,0,4.4,0,6.5C739,565.7,738,566.2,746,566"/>
<path class="st0" d="M968.3,746.3c-7.1,0.7-13.9,1.3-20.7,1.7c-4.2,0.2-6.4-2.3-6.6-6.4c-0.4-8.8-0.8-17.7-1-26.5
	c-0.1-7.3,2.3-9.9,9.5-10.1c9.4-0.1,18.7-0.1,28,0.1c3.3,0,6.5,1.2,6.5,5.4c0,4.5-3.5,4.4-6.5,4.5c-7.1,0.1-14.3,0.1-21.5,0
	c-4.4-0.1-6.3,2.1-6,6.4c0.3,4.6,0.2,9.3,1.2,13.7c0.6,3.1,3.8,2.9,6.7,2.6c3.4-0.3,7.1-0.6,10.2,0.5
	C972.2,739.6,972.1,742.8,968.3,746.3"/>
<path class="st0" d="M193,325c-2-1.3-3.5-2.6-5-4c2-1.3,3.9-3.1,6.1-3.9c2.8-1.1,6-1.8,9.1-2c7.2-0.4,11.2,4.1,11.9,12.4
	c0.4,4.8-1.4,8.7-3.7,12.5c-2.6,4.5-2.1,6.8,2.5,9c2.8,1.3,5.7,2.3,8.4,3.9c1.8,1,3.1,2.8,4.7,4.3c-1.5,1.3-2.9,3-4.6,3.8
	c-6.9,3.4-25.3-1.4-27.5-11.8c-0.8-3.7-0.2-7.8,0.2-11.7c0.3-3.3,1.2-6.5,1.9-9.7C197.8,324.4,195.4,325,193,325"/>
<path class="st0" d="M352,497c2.2,0.4,4,0.4,5.5,1.1c3.4,1.6,4,5.9,1.3,8.6c-2.4,2.2-4.7,4.5-7.4,6.2c-1.4,0.9-4.2,1.3-5.3,0.5
	c-7.6-5.7-15.2-3.1-22.8-0.4c-9.2,3.2-18.3,6.5-27.5,9.6c-4.1,1.4-7.5-1.4-8.8-7.2c-0.7-3.1,1.9-7.3,5.2-7.3c13,0,24.7-5.7,37.1-8
	C336.6,498.7,344.1,498,352,497"/>
<path class="st0" d="M753.3,462.2c-1.8,0.8-3.2,1.7-4.7,1.7c-11.6,0.5-23.3,0.7-35,1.2c-4.7,0.2-6.3-2.7-6.5-6.5
	c-0.3-4.6,0-9.3-0.1-14c-0.1-2.9,0.4-5.2,3.8-5.6c4-0.5,5.4,2.3,6.1,5.4c0.5,1.8,0.2,3.9,0.1,5.9c-0.3,3.2,0.4,5,4.2,4.8
	c3.1-0.2,5.2-0.8,4.9-4.6c-0.2-2,0.1-4.4,1-6c0.9-1.5,3.3-3.5,4.4-3.2c1.7,0.5,3.2,2.6,4.4,4.3c0.6,0.8,0.1,2.2,0.1,3.4
	c-0.1,3.4,0.8,5.2,4.9,5.1c3.8,0,4.2-1.7,4.2-4.8c0-3.7,0.2-7.5,1.1-11c0.4-1.4,3-3.1,4.5-3c1.5,0,4,2.1,4.1,3.4
	c0.4,7.3,0.2,14.6,0.1,21.9C754.8,461.1,754,461.5,753.3,462.2"/>
<path class="st0" d="M729,788c0.3,3.4,0.9,6.2,0.9,9.1c0,3,1.1,3.9,4,4c5.4,0,10.8,0.3,16.1,1.1c1.5,0.2,4,3.4,3.7,4.2
	c-0.8,1.8-3,4.3-4.7,4.4c-8,0.5-16,0.5-24-0.1c-1.8-0.1-3.7-3.2-4.9-5.3c-0.7-1.3,0-3.3-0.1-4.9c-0.3-8.9-0.8-17.7-1-26.6
	c-0.1-6.9,1.3-8.7,8.1-8.8c8-0.1,16.1,0.4,24,1.1c1.5,0.1,3.6,2.9,3.6,4.4s-2.3,4-3.8,4.2c-4.4,0.6-9,0.2-13.5,0.2
	c-7.9,0-8.4,0.5-8.4,8.5C729,784.8,729,786.2,729,788"/>
<path class="st0" d="M935,355c7.1-4.7,14.1-3.9,20.3,0.1c7,4.6,9.9,11.9,8.6,20.2c-1.1,7.6-5.6,13-12.8,15.6
	c-8.7,3.2-17.7-0.7-21.9-7.4c-5.4-8.8-4.3-17.5,1.4-24.6C931.8,357.5,933.2,356.3,935,355 M936,375.5c0.3,0.5,0.7,1,1,1.6
	c2.9,4.6,7.5,6,12.2,3.9c3.5-1.6,6.3-7.9,4.7-12.2c-1.5-4.3-5.2-7.5-10.3-6.8C938.6,362.7,936,367,936,375.5"/>
<path class="st0" d="M196.8,613.8c5.3-5.8,10.4-11.3,15.7-16.7c1.4-1.4,3.3-2.6,5.2-2.9c1.6-0.3,4.9,0.6,5,1.4c0.4,2,0,4.8-1.2,6.2
	c-5.7,6.2-11.9,12-17.8,18.1c-0.7,0.7-1.1,1.8-1.6,2.7c0.9,0.1,1.9,0.2,2.8,0.4c9.8,1.6,19.7,3.2,29.5,4.9c2,0.3,4,0.7,6,1
	c3.4,0.7,4.4,3.4,3.4,5.9c-0.6,1.5-3.4,3.2-5.1,3c-7.6-0.6-15.2-1.7-22.8-2.8c-7.6-1.2-15.2-2.5-22.8-4.1c-2.2-0.5-4.8-2.1-5.8-4
	c-0.7-1.2,0.9-4.1,2.2-5.8C191.6,618.5,194.1,616.4,196.8,613.8"/>
<path class="st0" d="M754,744c-12,0.3-23.6,0.7-35.1,1c-5.3,0.1-7.6-3.1-5.5-7.9c3.4-7.3,6.7-14.6,10.7-21.5c2.8-5,8-5.3,11.6-0.4
	c4.1,5.5,8.4,10.9,12.3,16.4c2.2,3,5.2,2.3,8.1,2.4c4.9,0.1,7.2,2.8,5.9,7C760.7,744.8,757.4,743.9,754,744 M729.5,735
	c2.5,0,5,0,7.5,0c0.6,0,1.2-0.2,1.8-0.3c-2.6-3.3-5.3-6.5-7.9-9.7c-0.1,0-0.4,0-0.5,0.1c-1.4,3.2-2.8,6.4-4.2,9.6
	C726.9,734.8,727.7,734.9,729.5,735"/>
<path class="st0" d="M736.8,603.8c-3.3,2.3-1.3,4.4-0.1,6.3c1.1,1.8,2.7,3.3,3.8,5c2.3,3.2,2.1,6.4-0.6,9.5
	c-1.2,1.4-2.1,3.3-3.6,4.5c-4.4,3.5,0.6,3.5,1.7,3.8c5.5,1.6,11.2,2.6,16.8,4.1c3.3,0.9,6.2,2.7,5.1,6.8c-1,4.2-4.9,3.7-7.7,3.1
	c-8.7-2.1-17.5-4.2-25.9-7.3c-5.9-2.2-7.4-5.3-2.5-10.9c1.8-2.1,4.3-3.9,5.1-6.4c0.7-2.2,0.1-5.3-0.9-7.6c-1.2-2.7-3.6-4.9-5.2-7.4
	c-1.6-2.7-1.4-5.4,1.4-7.3c4.5-2.8,8.9-6,13.7-8.1c2.1-0.9,6.4-0.8,7.7,0.7c2.4,2.7,0.2,5.8-2.5,7.7
	C741.3,601.6,739.1,602.4,736.8,603.8"/>
<path class="st0" d="M387.3,644.8c-1.3-2-2.4-3.8-3.3-5.5c-3.7-7.5-2.5-10.8,5.2-14c7.8-3.2,15.7-1.6,19.9,5.8
	c2,3.4,2.1,8.8,1.1,12.9c-1.6,6.8-4.3,13.2,1.5,19.5c0.7,0.6,1.7,3.5-1.8,3.6c-3.5,0-7,0.8-10.5,0.7c-1.1,0-2.4-1.8-3-3
	C393.3,658.2,390.4,651.6,387.3,644.8"/>
<path class="st0" d="M564,423c-3.2,1-5.9,2.4-8.7,2.9c-4.3,0.7-7.1-2-8.2-5.7c-1.7-5.5-3-11.2-4-16.8c-1-5,2.3-9.2,7.6-9.3
	c6.2,0,12.8-1.9,18.5,2c2.7,1.9,5.5,4.5,6.6,7.4c1.9,5.3,1.2,10.7-3.9,14.5C569.5,419.7,567,421.3,564,423"/>
<path class="st0" d="M580.3,426.8c5.6,6.7,10.5,13.3,10.7,22.3c0.1,4-1.6,6.3-5.1,7.9c-9.1,4.2-14.2,2.8-19.9-5.4
	c-1.7-2.4-3.5-4.7-5.7-6.7c-4.9-4.5-4.2-12.1,1.7-15.4C567.6,426.3,573.2,422.7,580.3,426.8"/>
<path class="st0" d="M220,560c-13.2,0-25.8-0.1-38.4,0c-4.6,0.1-6.7-1.7-6.6-6.4c0.1-7.2,0.2-14.3-0.1-21.5c-0.1-3.9,2.6-5.9,5-5.7
	c1.8,0.1,4.5,3.4,4.9,5.6c0.7,4.3,0.2,8.9,0.2,13.4c0,2.1-0.6,4.8,2.8,4.5c2.9-0.2,7,2,8-3.2c0.6-3.1-1.1-7.8,4.8-7.7
	c5.9,0,3.8,4.9,4.8,7.9c0.7,2,1.3,3.5,4,3.2c3.5-0.4,7.1-0.6,10.5,0.1c2.2,0.5,4.1,2.8,6.1,4.3C224.2,556.3,222.3,558.2,220,560"/>
<path class="st0" d="M622.8,386.8c2.7-3.1,5-6,7.7-8.7c1.9-1.9,3.8-0.1,4.4,1.4c3.5,9.6,7,19.4,6,29.9c-0.2,1.5-1.7,3.2-3.1,4.2
	c-5.5,3.8-11.1,7.5-16.9,10.9c-2.1,1.1-5,1.5-7.4,1.2c-0.7-0.1-1.7-3.8-1.3-5.5c0.7-3.6,1.6-7.6,3.8-10.4c4.2-5.3,6.7-10.7,6-17.5
	C621.9,390.6,622.3,388.8,622.8,386.8"/>
<path class="st0" d="M938.3,652.8c-2.1-2.3-5.2-4-2.3-7.1c0.9-1.1,3.3-2.2,4.3-1.7c5.5,2.7,10.9,5.8,16.2,9
	c5.5,3.3,10.9,6.7,16.2,10.3c4.2,2.8,4.5,5.1,0.9,8.5c-5.5,5.3-11.4,10.2-17.2,15.2c-3,2.6-6.4,4.8-9.3,7.5
	c-2.7,2.4-5.9,2.8-8.1,0.6c-2.2-2.1-1.7-5.4,1-7.6c5.5-4.5,10.8-9.2,16.5-13.4c5.7-4.4,5.9-6.5-0.1-10.1S944.5,656.7,938.3,652.8"/>
<path class="st0" d="M821.3,207.8c-3.6-4.3-7.9-5.9-13-5.8c-5.3,0.1-8-3.5-10.3-7.5c-2.7-4.8,0.3-8.6,3.1-11.8
	c2.9-3.6,8.6-2.1,9.6,2.7c1.3,6.3,4.9,7.7,10.7,7.8c2.1,0.1,4.7,2.1,6.1,4c2.4,3.2,4.1,7,5.7,10.6c2.3,4.8,0,10.8-4.8,12.1
	c-4.3,1.2-8.8,1.9-13.2,1.9c-1.8,0-4.3-1.9-5.1-3.6c-0.9-1.8-1.1-5.1,0.1-6.4c1.2-1.4,4.2-1.3,6.5-1.5c1.3-0.2,2.7,0.6,4.1,0.7
	C825.2,211,822.7,209.3,821.3,207.8"/>
<path class="st0" d="M726.8,415.8c-2.6,2.5-4.9,5.1-7.4,7.2c-2.5,2.2-6.2,3.6-8.6,1c-2.2-2.4-1-5.6,1.7-8.1
	c4.7-4.4,9.2-9.1,13.8-13.7c3.4-3.4,3.2-4.6-0.9-7.2c-5.6-3.5-10.9-7.3-16.6-10.6c-3.3-1.9-5-3.8-2.8-7.4c2.1-3.3,4.9-2.6,7.5-1
	c9.3,5.9,18.8,11.7,27.8,18.2c3,2.1,2.3,5.9-0.6,8.6C736.1,407.1,731.6,411.3,726.8,415.8"/>
<path class="st0" d="M933,322c6.1,3.4,7.2,2.9,11.2-2.5c2.2-3,3.7-7.9,9.1-6.4c2,0.5,3.9,1.8,5.8,2.9c4.9,3,9.8,6,14.6,9.3
	c2.6,1.8,5,4.3,2.6,7.7c-2.4,3.6-5.6,2.1-8.4,0.4c-3.2-2.1-6.1-4.6-9.4-6.3c-3.2-1.6-6.1-2.2-8.7,2.3c-5.1,9-6.4,9-15.7,4.2
	c-4.5-2.3-8.9-5-13.4-7.3c-2.9-1.5-5-3-2.9-6.6c1.9-3.3,4.5-3.4,7.5-1.9C927.7,319.1,930.1,320.6,933,322"/>
<path class="st0" d="M712,348c-3.3-2.1-5.9-4.5-8.9-6.3c-3.7-2.1-4.2-5.8-2.5-8.4c2.1-3.1,5.8-1.3,8.5,0.4c1.7,1,3,2.4,4.6,3.5
	c5.9,4.1,6.4,4.1,11-1.4c2.8-3.3,6.1-3.4,10.3-0.3c6.7,4.9,13.3,9.8,20,14.5c3.1,2.1,4.1,5,1.7,7.3c-1.3,1.4-5.3,1.5-7.1,0.5
	c-5.1-2.9-9.6-6.7-14.4-10.1c-2.8-1.9-5-2.7-7.6,1C723.4,354.9,720.1,354.5,712,348"/>
<path class="st0" d="M865.8,209.8c-3.3,0.9-7,0.8-9.3,2.5c-3.3,2.5-1.2,8.4,3.1,11.8c3.8,2.9,7.7,6.1,10.6,9.9
	c1.6,2.3,1.8,6.1,1.6,9.2c-0.2,1.4-3.1,3.7-4.5,3.5c-2.2-0.2-5.5-1.8-6.1-3.5c-2.3-7.7-8.1-12.6-13.4-17.9
	c-6.8-6.8-5.4-19.3,2.7-24.3c4.5-2.7,8.3,0.1,11.7,2.2C864.1,204.3,864.8,207.3,865.8,209.8"/>
<path class="st0" d="M441.3,207.3c5-3.1,6-2.8,7.7,2.3c2.5,7.8,4.8,15.7,7.5,23.4c2.2,6-2.3,9.7-4.3,14.3c-0.4-0.2-1-0.3-1.2-0.6
	c-1.4-2.7-3.1-5.4-3.9-8.3c-1.2-4.6-3.8-7.2-8.4-8.5c-5.6-1.4-7.3-5.6-4.6-10.8C436.1,215.1,438.7,211.4,441.3,207.3"/>
<path class="st0" d="M589.8,712.8c-4.2,2.4-8,4.8-12,6.8c-2,1-4.2,3.2-5.9-1c-2.8-6.8-5.4-13.4-4.9-21c0.4-6.5,2.3-8.1,8-4.9
	c5.8,3.2,11,7.4,16.4,11.2C595.5,706.7,595.1,710.1,589.8,712.8"/>
<path class="st0" d="M107.8,370.3c8.5,4.4,11.8,15.2,3.3,22.2c-4.7,3.9-11.6,3.6-16.4-1.3c-4.6-4.6-4.8-11.8-1.2-16.3
	C97.3,370,102.1,369.5,107.8,370.3 M107,382.5c-2-0.3-4-0.7-6.1-0.9c-0.1,0-0.3,0.9-0.5,1.3C102.5,383,104.5,383,107,382.5"/>
<path class="st0" d="M355.3,515.3c3.1-2.2,5.9-4,8.8-5.9c3.8-2.5,8.4-1.6,10.9,2.1c1.5,2.4,2.7,4.9,4.2,7.2
	c3.2,4.9,2.4,8.8-3.1,10.5c-4.5,1.3-9.5,1.9-14.1,1.6C356.8,530.5,352,519.1,355.3,515.3"/>
<path class="st0" d="M543,533c-2-0.6-4.2-0.8-4.9-1.9c-6-10.6-12.1-21.3-14.8-33.3c-0.4-2.2-0.3-4.6-0.3-6.9
	c0.1-1.3,0.6-2.6,0.9-3.9c1,0.9,2.4,1.7,3,2.9c4.2,7.5,8.2,15.2,12.4,22.8c0.7,1.4,2,2.7,3.4,3.4c4.1,2.1,5.5,5.9,6.2,9.9
	C549.7,530,546.7,531.7,543,533"/>
<path class="st0" d="M149,796c0-9.7,1.3-11.4,8.6-14.1c6.9-2.6,13,2.6,15,7.3c2.3,5.2-1.6,12.7-7.3,14.8
	C159.8,806.1,152,803.5,149,796 M160,796.5c4.5,0.8,2.8-2.7,2.9-4.6c0-0.9-1.2-1.9-1.8-2.9c-0.7,1.4-1.6,2.8-2,4.3
	C158.8,794.1,159.3,795.1,160,796.5"/>
<path class="st0" d="M281.3,351.3c1.6-2.6,3-4.8,4.4-7.1c1.1,2.8,2.4,5.4,3.2,8.2c0.5,1.5,0.1,3.3,0.1,5c0,6.2-2.5,9.4-8.6,10.6
	c-8.6,1.6-13.8,6.5-15.4,15.1c-0.1,0.5,0.1,1.2-0.1,1.5c-1.1,1.5-2.4,2.8-3.5,4.3c-0.5-1.7-1.4-3.3-1.3-5
	c0.4-8.7,2.3-17.5,10.7-21.6C276,359.7,279.2,356.6,281.3,351.3"/>
<path class="st0" d="M432,333c0-3-0.5-5.6,0.2-7.9c0.4-1.6,2.2-3.4,3.8-3.9c0.9-0.3,3.4,1.3,3.9,2.6c2.9,8.2,5.5,16.6,8.1,25
	c1.4,4.6-2.1,6.4-5.4,8s-4.4-1.2-5.6-3.5C433.7,347.1,432,340.5,432,333"/>
<path class="st0" d="M336.3,521.3c-6.9,2.1-13.2,4.3-18.7,9.1c-3,2.6-8.4,3-12.9,3.4c-1.8,0.1-3.8-2.3-5.7-3.6
	c1.3-1.7,2.2-4.4,3.9-5c10.3-3.7,20.8-6.9,31.2-10.2c0.6-0.2,1.5-0.2,2,0c2.3,1.3,4.6,2.8,6.9,4.1
	C340.8,519.8,338.7,520.4,336.3,521.3"/>
<path class="st0" d="M584.3,560.3c-1.3,4.4-2,8.8-3.4,12.9c-1.1,3-3.4,3.8-5.6,0.6c-3.4-4.8-5.1-10-3.6-15.9c0.9-3.8,2-7.5,3.1-11.2
	c0.3-0.8,0.7-1.9,1.4-2.3c1.8-1.3,3.7-2.3,5.6-3.4c0.9,1.7,2.4,3.3,2.6,5C584.7,550.6,584.5,555.3,584.3,560.3"/>
<path class="st0" d="M517,229c-0.3-6.7-0.7-12.8-1-19c3,0.2,7.2-0.8,8.9,0.8c5.1,5.1,5.9,12,4.7,19c-0.5,2.4-0.3,5.9-4.5,6.3
	C520.1,236.5,519,232.5,517,229"/>
<path class="st0" d="M311.8,734.8c-1.9,1.8-3.3,4.2-5.3,4.9c-1.9,0.7-5.3,0.6-6.5-0.7c-1.1-1.1-0.9-4.8,0.1-6.4
	c3.5-4.8,7.5-9.2,11.5-13.7c2.1-2.3,4.7-4.6,7.8-1.9c3,2.7,2.3,5.6-0.3,8.5C316.5,728.3,314.3,731.5,311.8,734.8"/>
<path class="st0" d="M410.3,693.8c-2.7-3-5.5-5.4-7.2-8.5c-1.3-2.2-2.7-6.4-1.6-7.7c2.1-2.6,5.7-4.5,9.1-5.3
	c1.3-0.3,4.2,2.4,5.3,4.3C420.1,683.6,418.1,689.4,410.3,693.8"/>
<path class="st0" d="M338.8,531.8c-3.1,2.3-5.7,4.8-8.7,6.5c-2.5,1.3-5.5,1.9-8.4,2.5c-0.3,0.1-1.6-1.9-1.6-2.9
	c-0.1-3.3,1.2-5.8,4.5-7.1c5.3-2.1,10.5-4.5,15.8-6.6c1.3-0.5,3.1-0.6,4.3-0.1c1.6,0.6,2.9,2.1,4.3,3.1c-1.2,1-2.3,2.2-3.7,2.7
	C343.3,530.7,341.1,531,338.8,531.8"/>
<path class="st0" d="M553.3,568.8c0.6-7.6,6.8-10.5,11.4-14.7c0.3-0.3,2.2,0.3,2.2,0.4c-0.2,5.6-0.3,11.1-1,16.6
	c-0.3,2.4-1.4,5.1-5,4.9c-3.9-0.1-5.6-2.6-6.9-5.7C553.8,569.9,553.7,569.4,553.3,568.8"/>
<path class="st0" d="M510.3,279.3c-3-0.2-7.1,0.4-8.1-1.1c-2.4-3.5-4.2-8-4.5-12.1c-0.3-3.9,3.6-5.6,7.3-2.9c3.3,2.4,5.8,6.3,7.8,10
	C513.4,274.4,511.3,277,510.3,279.3"/>
<path class="st0" d="M332,545c2.9-3.3,5.4-7,8.8-8.8c3.5-1.7,7.9-1.8,12-2c1.3-0.1,2.8,1.6,4.2,2.5c-1.1,0.7-2.1,1.4-3.2,2
	c-5.1,2.8-10.2,5.6-15.4,8.4C335.9,548.4,333.3,549.5,332,545"/>
<path class="st0" d="M479,175c-0.6,3.8-2.2,5.5-5.9,5c-3.8-0.4-6.2-2.7-6.9-6c-0.3-1.4,0.9-3.8,2.2-4.9c2.4-2,5.6-2.4,8.1,0
	C477.8,170.5,478.2,172.7,479,175"/>
<path class="st0" d="M454,186c-0.4-4.1,1.3-7.1,4.5-7.7c1.9-0.3,4.9,1.5,6.3,3.3c2.5,3,0.8,6.2-2,7.9c-2.6,1.7-5.8,2.3-7.8-1.4
	C454.7,187.5,454.3,187,454,186"/>
<path class="st0" d="M484,212c-1,0.3-1.6,1-2.1,0.9c-2.8-0.5-5.7-1.2-8.4-2.1c-0.5-0.2-0.5-3.3-0.2-3.4c2.8-1,5.6-2.2,8.5-2.3
	C485.7,205,486.6,207.5,484,212"/>
<path class="st0" d="M502,166c-0.1,2.6,0,4.9-0.6,6.8c-0.2,0.5-3,0.6-4.3,0.1c-1.9-0.6-3.7-9.1-2.1-10.2c1.4-1,3.5-1.8,5.1-1.5
	C501,161.4,501.4,164,502,166"/>
<path class="st0" d="M459,261c6.2-2.1,9.7-0.2,8.8,4.9c-0.1,1.2-2.4,3.2-3.4,3c-2.2-0.4-4.6-1.7-6.3-3.3
	C457.4,265,458.3,262.6,459,261"/>
<path class="st0" d="M464,253c-1.8,1.9-3.6,4.2-5.9,1.9c-1.2-1.2-2.2-3.5-1.9-5.1c0.3-2,2-3.7,3.1-5.6c1.6,1.1,3.6,2,4.6,3.5
	C464.6,248.8,464,250.9,464,253"/>
<path class="st0" d="M483,171c0-0.8-0.1-1.2,0-1.5c0.5-2-1.6-5.1,2-5.9c1.2-0.3,3.7,0.3,3.9,1c0.8,2.5,1.2,5.2,1.1,7.7
	c0,0.9-2.1,2.7-2.5,2.5C485.8,174.1,484.5,172.7,483,171"/>
<path class="st0" d="M511.8,162.3c3.8,1.2,2.4,4.3,2,6.1c-0.3,1.7-2.4,3.2-3.8,4.5c-0.3,0.3-2-0.2-2.1-0.6c-0.4-2.8-0.9-5.7-0.7-8.5
	C507.3,163.1,510,162.6,511.8,162.3"/>
<path class="st0" d="M515,201c0.6-4.5,3.8-2.8,5.9-2.8c0.7,0,1.9,1.9,1.9,3.1c0.1,0.8-1.1,2.4-1.9,2.6
	C518.6,204.3,516,204.6,515,201"/>
<path class="st0" d="M518,171c0.2-2.3,0.5-4.2,0.7-6c1,0.3,2.5,0.4,2.9,1.1c0.8,1.2,1.7,3.1,1.2,4.2c-0.5,1.5-2.3,2.5-3.6,3.7
	C518.8,173.2,518.4,172.3,518,171"/>
<path class="st0" d="M520.3,241.3c0.5-0.3,0.9-0.3,1.2-0.3c1.5,0.2,3,0.5,4.5,0.7c-1.1,2-2.1,4.1-3.4,6c-0.2,0.4-2.4,0-2.4-0.2
	C520,245.5,520,243.5,520.3,241.3"/>
<path class="st0" d="M525.8,179.3c-0.4-1.5-0.9-2.8-0.6-3.9c0.5-1.6,1.6-2.9,2.4-4.3c0.8,2.1,2.1,4.2,2.3,6.3
	C530,179.7,528.3,180.8,525.8,179.3"/>
<path class="st0" d="M240.7,901.3c-4-3.1-7.9-5.9-11.6-8.8c-3.7-2.9-2.6-6.4-0.5-9.4s5.3-4.4,8.7-2c6.2,4.4,12.2,9,18.1,13.9
	c3.6,2.9,1.4,6-0.7,8.8c-2.4,3.2-5.7,2.8-8.8,1.5C244.1,904.5,242.6,902.8,240.7,901.3"/>
<path class="st0" d="M728,499c0-6,1.4-7.7,5.8-6.8c1.5,0.2,2.9,2.3,3.6,3.8c2.5,5.7-0.2,11.4-5,11C727.5,506.6,728,502.8,728,499"/>
</svg>
